<svg id="Layer_2" data-name="Layer 2" xmlns="http://www.w3.org/2000/svg" viewBox="0 0 685.04 1051.48"><defs><style>.cls-1{fill:#473834;}.cls-2{fill:#725a52;}.cls-3{fill:#e5ca2e;}.cls-4{fill:#e0a32b;}.cls-5{fill:#60443e;}.cls-6{fill:#fff431;}.cls-7{fill:#568e4c;}.cls-8{fill:#73ba65;}.cls-9{fill:#ad3e3b;}.cls-10{fill:#d34d46;}.cls-11,.cls-22,.cls-28{fill:#fff;}.cls-11{opacity:0.27;}.cls-12{fill:#ed9254;}.cls-13{fill:#d8864e;}.cls-14{fill:#b77446;}.cls-15{fill:#fecc84;}.cls-16{fill:#436b49;}.cls-17{fill:#9ed2f2;}.cls-18{fill:#88b4d3;}.cls-19{fill:#304298;}.cls-20{fill:#223466;}.cls-21{fill:#405cc6;}.cls-22{opacity:0.58;}.cls-23{fill:#5974aa;}.cls-24{fill:#e3d8c6;}.cls-25{fill:#c9c0b1;}.cls-26{fill:#f7a037;}.cls-27{fill:#dd8c33;}.cls-28{opacity:0.37;}.cls-29{fill:#93746c;}.cls-30{fill:#846861;}</style></defs><polygon class="cls-1" points="368.62 256.33 438.72 312.46 411.35 395.85 313.06 384.46 368.62 256.33"/><path class="cls-2" d="M387,1166c-2.72-7.06,57.5-142.3,57.5-142.3l116.64,54.12-52.25,140.85Z" transform="translate(-192.55 -821.49)"/><path class="cls-3" d="M489.88,1275.18c1.12-1,71.28-48.69,95-82.54,38.29-54.73,46.87-142,46.87-142l18-8s41.68,41.21,32.95,99.09-26.13,86-74.66,122.8c-53,40.12-113,28.58-113,28.58Z" transform="translate(-192.55 -821.49)"/><path class="cls-4" d="M648.93,1043.35c11.65,16.75,27.42,47.42,21.72,85.19-8.74,57.89-26.13,86-74.66,122.8-40.78,30.88-85.75,31.15-104.3,29.64l3.52,12.38s60.06,11.54,113-28.58c48.53-36.75,65.92-64.91,74.66-122.79s-32.95-99.1-32.95-99.1Z" transform="translate(-192.55 -821.49)"/><polygon class="cls-3" points="439.16 229.14 425.72 196.42 436.55 186.55 457.16 221.14 439.16 229.14"/><path class="cls-3" d="M608.46,1008.45c-.53,6.74,3.47,15.25,3.47,15.25l27.68-13.88-7.91-13.17Z" transform="translate(-192.55 -821.49)"/><polygon class="cls-5" points="302.42 471.61 297.32 453.69 313.06 450.62 309.88 466.33 302.42 471.61"/><path class="cls-6" d="M614.3,1015.46a12,12,0,0,0,4-1.07c3.06-1.21,6.11-2.43,9.1-3.8,2-.9,4.23-2.48,3.83-4.61a3.41,3.41,0,0,0-3.11-2.46,9.34,9.34,0,0,0-4.14.84c-3.34,1.26-9.33,2.77-12,5.19S610.25,1015.55,614.3,1015.46Z" transform="translate(-192.55 -821.49)"/><path class="cls-6" d="M517,1267.46c18.94-11.26,37.74-23,54.65-37.08s32-30.85,42-50.46a12.35,12.35,0,0,0,1.75-5.51c0-1.94-1.12-4-3-4.49s-3.9.87-5.39,2.26c-5.44,5-9.42,11.42-13.7,17.48-17.62,25-40.71,45.55-64.89,64-3.17,2.42-6.76,4.6-9.78,7.18-1,.87-1.89,1-2.44,2.39C516,1263.67,515.91,1268.08,517,1267.46Z" transform="translate(-192.55 -821.49)"/><path class="cls-6" d="M617.59,1158.23a5.34,5.34,0,0,0,4.72-2.27,15.06,15.06,0,0,0,2.22-5,308.94,308.94,0,0,0,8.66-35.61c.5-2.74,1-5.57.36-8.29a4.1,4.1,0,0,0-.95-2c-1.23-1.25-3.4-.84-4.83.17-2.89,2-4,5.75-4.86,9.17q-4.75,18.28-9.52,36.57a4.52,4.52,0,0,0-.18,2.3C613.66,1154.84,615.79,1158,617.59,1158.23Z" transform="translate(-192.55 -821.49)"/><path class="cls-4" d="M624.75,1017.27s-1.26-4,6.77,7.43,13.61,18.62,13.61,18.62.6-.81,5,3.09,5.81,3.94,5.81,3.94l-6.25-7.72-17.38-29.16Z" transform="translate(-192.55 -821.49)"/><polygon class="cls-4" points="447.06 188.33 442.15 187.74 434.85 177.34 439.15 175.16 447.06 188.33"/><path class="cls-3" d="M348.62,1235.3c1.49-.29,86.19-4.79,124-21.51,61.07-27,113.58-97.27,113.58-97.27l19.54,2.47s14.36,56.83-23.06,101.84S515.78,1281,455.23,1287.3c-66.09,6.92-111.52-34-111.52-34Z" transform="translate(-192.55 -821.49)"/><path class="cls-4" d="M604.67,1119.2c1.3,20.36-1.07,54.76-25.49,84.14-37.43,45-66.87,60.12-127.42,66.46-50.87,5.33-89.5-17.7-104.59-28.59l-3.39,12.41s45.43,41,111.52,34c60.54-6.34,90-21.44,127.42-66.46s23.06-101.84,23.06-101.84Z" transform="translate(-192.55 -821.49)"/><polygon class="cls-3" points="393.62 295.03 399.05 260.08 413.42 257.23 413.16 297.5 393.62 295.03"/><path class="cls-3" d="M588.09,1068.39c-3.93,5.5-4.91,14.85-4.91,14.85l30.86,2.44.05-15.36Z" transform="translate(-192.55 -821.49)"/><polygon class="cls-5" points="151.16 431.78 156.06 413.81 171.12 419.33 160.27 431.12 151.16 431.78"/><path class="cls-6" d="M589.47,1077.41a11.88,11.88,0,0,0,4,1.16c3.25.54,6.49,1.08,9.76,1.45,2.14.25,4.9.07,5.65-2a3.4,3.4,0,0,0-1.38-3.72,9.38,9.38,0,0,0-4-1.42c-3.51-.65-9.42-2.45-12.92-1.75C587.28,1071.84,586,1075.4,589.47,1077.41Z" transform="translate(-192.55 -821.49)"/><path class="cls-6" d="M375.78,1242.7c22,.16,44.17-.11,66-3.45s43.33-9.86,62.08-21.45a12.48,12.48,0,0,0,4.35-3.8c1-1.67,1.12-4-.26-5.41s-3.79-1.27-5.78-.85c-7.26,1.51-14,4.9-20.77,7.88-28,12.29-58.4,17.91-88.66,21.22-4,.44-8.17.44-12.08,1.09-1.32.22-2.13-.13-3.33.78C376.93,1239,374.57,1242.69,375.78,1242.7Z" transform="translate(-192.55 -821.49)"/><path class="cls-6" d="M518.41,1201.29a5.36,5.36,0,0,0,5.22.51,15.42,15.42,0,0,0,4.48-3.11,312.06,312.06,0,0,0,25.83-26,21.6,21.6,0,0,0,4.6-6.91,4.1,4.1,0,0,0,.23-2.24c-.41-1.71-2.46-2.48-4.21-2.36-3.53.26-6.37,2.87-8.91,5.34l-27.06,26.37a4.44,4.44,0,0,0-1.35,1.87C516.81,1196.36,517,1200.16,518.41,1201.29Z" transform="translate(-192.55 -821.49)"/><path class="cls-4" d="M597.47,1084.37s1-4,1.95,9.86,2,23,2,23,.94-.38,2.71,5.26,2.93,6.37,2.93,6.37l-1.36-9.84.22-34Z" transform="translate(-192.55 -821.49)"/><polygon class="cls-4" points="421.49 264.19 417.59 261.15 416.73 248.47 421.53 248.83 421.49 264.19"/><path class="cls-7" d="M727.47,821.49A146.54,146.54,0,0,0,755.31,823q10,95.43,19.91,190.84c1.29,12.37,2.44,25.55-3.24,36.61s-21,18.06-31,10.67c-8.55-6.32-8.79-18.8-8.22-29.42,1.81-33.15,8.11-64.74,6.53-97.82C738.8,923.13,735,822.63,727.47,821.49Z" transform="translate(-192.55 -821.49)"/><path class="cls-8" d="M810.21,875.26c3.28-7.14,5-29.1,12.85-28.68,8.91.48,17.55,5.91,21.26,12.83q-35.15,101-70.31,201.95c-4.52,13-22.42,37-31.32,14.66-6.48-16.25,5.84-44.7,10.41-59.9C767.72,967.51,789,921.26,810.21,875.26Z" transform="translate(-192.55 -821.49)"/><path class="cls-7" d="M842.24,922.43l14.69,6.76A2122.36,2122.36,0,0,1,756.2,1131.71c-10.46,18.48-21.67,37.34-38.78,49.92-2.36,1.74-5.09,3.41-8,3.11-20.79-2.18,8.14-86.18,15.24-100.1,17.68-34.62,41.94-68.23,65.09-99.3C794.15,979.41,837.24,920.13,842.24,922.43Z" transform="translate(-192.55 -821.49)"/><path class="cls-8" d="M717.57,885.11c5.73-3.57,13.71-.43,17.71,5s5,12.44,5.93,19.13c2.88,21.16,5.75,42.35,7,63.67,2.75,47.73-2.8,95.5-8.34,143-2.57,22.09-5,56.3-24.3,71.32-21,16.4-20.21-9.13-18.07-23.25,8.86-58.4,15.91-116.64,18.69-175.71q1.25-26.55,1.58-53.13C717.82,929.3,714,887.31,717.57,885.11Z" transform="translate(-192.55 -821.49)"/><path class="cls-7" d="M702,973.42l32.42,10.76a741.59,741.59,0,0,1-17.78,184.55,470.52,470.52,0,0,1,105-162.87l27.53,21.27c-23.47,23.94-39.72,53.86-55.67,83.35-32.18,59.53-64.65,119.76-82.07,185.16-4.5,16.91-8.12,34.46-17.47,49.25-17.61,27.88-68,35.13-71.2-7.72-1-13.08,8.73-25.92,13.26-37.61,7.7-19.92,12.86-41.18,18.46-61.78A1541.79,1541.79,0,0,0,702,973.42Z" transform="translate(-192.55 -821.49)"/><path class="cls-8" d="M747.46,1083.47a431.43,431.43,0,0,1,72.66-70.84c-35.73,36.86-72.42,75.22-90.08,123.42.26-9.56.78-20.24,3.06-29.56C735.23,1097.83,742,1090.26,747.46,1083.47Z" transform="translate(-192.55 -821.49)"/><path class="cls-9" d="M591.74,1210.34c9.81-6.3,16.65-3.47,29.74-10.3,1.55-.8,1.94,3.31,3.22,4.5,1.81,1.67-3.15,5.23-4,7.57a17.7,17.7,0,0,1-4.13,6.08c-9.17,9.92-23.29,24.32-37.3,26.38-3.51.51-25.55,5.43-24.1,1.12,4.14-12.31,19.61-15.75,22.51-18.71C584,1220.55,581.65,1216.83,591.74,1210.34Z" transform="translate(-192.55 -821.49)"/><path class="cls-10" d="M592.55,1233c-13.18,10.08-45.85,2.63-50,32.92s29.74,75.91,56.15,87.34,60.67-5.8,80.61-20.31c23.29-16.94,49.43-53.47,25.26-94.13-21.15-35.57-51.17-58.9-81.7-39.66C604.25,1210.89,614.15,1216.49,592.55,1233Z" transform="translate(-192.55 -821.49)"/><path class="cls-9" d="M643,1192.32c14.32,7.75,27.43,22.72,38.23,40.88,24.17,40.66-2,77.19-25.26,94.13-15.3,11.14-39,23.87-61.19,24,1.32.72,2.63,1.36,3.92,1.92,26.4,11.42,60.67-5.8,80.61-20.31,23.29-16.94,49.43-53.47,25.26-94.13C688.08,1211.15,666.24,1190.87,643,1192.32Z" transform="translate(-192.55 -821.49)"/><path class="cls-11" d="M560.9,1274.33a37.17,37.17,0,0,0,5.39,21.86c2.27,3.82,5.27,7.41,9.3,9.28s9.27,1.64,12.48-1.43a6.11,6.11,0,0,0,1.77-2.88,9.11,9.11,0,0,0-.57-4.71c-2.21-7.22-4.41-14.8-2.93-22.19.7-3.53,2.23-6.87,2.81-10.42s0-7.64-2.77-9.94c-4.28-3.55-12.29-1.5-16.3,1.54C564.54,1259.62,561.47,1267.65,560.9,1274.33Z" transform="translate(-192.55 -821.49)"/><path class="cls-11" d="M590.11,1312.4c-2.69,1.87-3.09,6.07-1.23,8.76a9,9,0,0,0,8.7,3.35,4.63,4.63,0,0,0,4.38-6.31,9.79,9.79,0,0,0-3.7-5.72,7,7,0,0,0-6.61-.86Z" transform="translate(-192.55 -821.49)"/><path class="cls-12" d="M343.09,1068.94l-.4-.71c-.23.27-1.53-.55-.54.34Z" transform="translate(-192.55 -821.49)"/><path class="cls-12" d="M317.49,1192.27c21.58-.1,37.84-31.46,46.76-48.48,8.25-15.74,20.93-47.33-.23-64.06-6.23-4.93-15-8-22-10.73l2.38,4.32c-6-8.85-20.11-22.7-28.62-20.53-8.93,2.28-21,4.57-29,9-29.77,16.47-37.8,33.81-34.9,64.72C255.67,1167.6,290.35,1192.4,317.49,1192.27Z" transform="translate(-192.55 -821.49)"/><path class="cls-13" d="M317.32,1191.7a26.16,26.16,0,0,0,13.65-4.26c-25.05-4.94-52.47-28.51-55.87-64.78-2.9-30.91,5.13-48.24,34.9-64.72a61.29,61.29,0,0,1,12.44-4.82,11.13,11.13,0,0,0-6.87-.9c-8.94,2.28-21,4.57-29,9-29.78,16.48-37.8,33.82-34.9,64.73C255.49,1167,290.17,1191.82,317.32,1191.7Z" transform="translate(-192.55 -821.49)"/><path class="cls-14" d="M312.86,1192.47a23.57,23.57,0,0,0,8.45-1.65c-26.36-2.35-57.67-26.65-61.32-65.57-2.9-30.9,5.12-48.24,34.9-64.72,5.92-3.28,14.1-5.38,21.57-7.18a9.91,9.91,0,0,0-5.36-.36c-8.93,2.28-21,4.57-29,9-29.78,16.47-37.8,33.81-34.9,64.72C251,1167.8,285.71,1192.6,312.86,1192.47Z" transform="translate(-192.55 -821.49)"/><path class="cls-13" d="M411.71,1181.12l-.18-.25A3,3,0,0,0,411.71,1181.12Z" transform="translate(-192.55 -821.49)"/><path class="cls-13" d="M336.71,1266.69c19.88-.69,28-27.79,45.58-37.32,10.09-5.48,19.07-12.95,25.59-23,2.79-4.31,4.83-14.71,1.68-20.47l-7.42-3.39c-6.68-3.38-5.85,8.3-10.31.66,4.33-9.63,5.06-28,9.65-38,6.6-14.45,5.8-36.06-.2-52.79-13.23-36.93-46.15-57.14-70.15-50.93-7.67,2-26.57,13.55-3.76,19.32,7.35,1.86,15.32,13.58,20.68,22.39,19.12,31.48-34.93,70.93-41.75,82.26-7.85,13-18.11,29.2-17.31,45.25C290,1230.18,309.22,1267.66,336.71,1266.69Z" transform="translate(-192.55 -821.49)"/><path class="cls-13" d="M411.71,1181.12a9,9,0,0,1,.66,1h0A4.74,4.74,0,0,0,411.71,1181.12Z" transform="translate(-192.55 -821.49)"/><path class="cls-14" d="M335,1267a20.69,20.69,0,0,0,5.58-.94c-24.3-4.06-40.91-37.56-41.8-55.65-.8-16,9.46-32.21,17.31-45.25,6.82-11.32,60.87-50.78,41.75-82.25-5.36-8.82-13.33-20.53-20.68-22.4-22.81-5.77-3.91-17.34,3.76-19.32.51-.13,1-.25,1.54-.36a37.42,37.42,0,0,0-13,.91c-7.67,2-26.57,13.55-3.77,19.32,7.36,1.86,15.33,13.58,20.69,22.4,19.12,31.47-34.93,70.92-41.75,82.25-7.85,13-18.11,29.2-17.31,45.25C288.22,1230.45,307.49,1267.93,335,1267Z" transform="translate(-192.55 -821.49)"/><path class="cls-14" d="M411,1316.87c18.86,8,20.52,16.5,35.26,9l16.1-11.17c13.05-14.23,17.94-45.72,9.68-67.27-6.4-16.71-22.83-33.19-39-37.19-10.57-2.61-16.14,5.28-23.48,10.87-8.47,6.46-16.75,13.46-21.07,24.18C379.28,1267.92,383.31,1305.14,411,1316.87Z" transform="translate(-192.55 -821.49)"/><path class="cls-12" d="M417.33,1359.12c16.17-2.38,36.88-20,46.36-39.82,12-25-6.9,6.87-43.36-12.54-9.92-5.28-16.07-11.15-19.92-21.41-5.62-15,.72-27.13,8.92-37,11.17-13.41,28.43-35.27,30.22-56.5,1.93-22.93-11.75-38.3-24.69-49.05-14.16-11.76-14.58,14.3-36.09,46.63-13.08,19.66-27,36.06-37.08,49.4-16.43,21.85-19.15,39.83-9.21,62.8C339.9,1318.81,365.05,1366.83,417.33,1359.12Z" transform="translate(-192.55 -821.49)"/><path class="cls-13" d="M403.87,1360.66c-29.77-10.92-45.44-41.39-51-54.31-9.94-23-7.23-40.95,9.2-62.8,10-13.34,24-29.75,37.09-49.41,12.54-18.85,17.91-35.57,23-43.9-2.41-2.4-4.9-4.61-7.36-6.66-14.17-11.76-14.58,14.29-36.09,46.63-13.08,19.66-27.05,36.06-37.08,49.4-16.44,21.85-19.15,39.83-9.21,62.8C339.16,1318,360.62,1359.23,403.87,1360.66Z" transform="translate(-192.55 -821.49)"/><path class="cls-14" d="M396.11,1359.67c-34.75-8.07-52.6-42.59-58.65-56.58-9.94-23-7.23-40.95,9.2-62.8,10-13.34,24-29.75,37.08-49.41,16.89-25.38,20.78-46.89,28.52-49.27-12-7.08-13.5,17.81-33.77,48.28-13.08,19.66-27.05,36.06-37.09,49.4-16.43,21.85-19.14,39.83-9.2,62.81C338.55,1316.77,357.89,1354.06,396.11,1359.67Z" transform="translate(-192.55 -821.49)"/><path class="cls-12" d="M328.48,1230.07c1.9-1,4.77-7.16,6-9.17,2.23-3.74,2.8-7.82,5.73-11,6.29-6.75,12.76-10.2,17.16-19,4.92-9.86,8.37-19.73,14.57-28.74s13-18.46,17.06-29.05c5.84-15.34,3.5-38.93-8.72-53.34l-5.08-7.62c-1.64-1.38-7.63-3.2-9.57-2.28-3.69,1.74-1.33,5.75-.27,9.08,2.48,7.79,5.21,15.9,5.11,23.78a74.15,74.15,0,0,1-5.46,25.8c-3.82,9.72-13,16.86-19.48,24.12-7.24,8.1-14.93,16.15-20.68,25.62s-10.19,18.11-8.58,30.87C317,1214.87,320.73,1234,328.48,1230.07Z" transform="translate(-192.55 -821.49)"/><path class="cls-13" d="M437.66,1306.06c5.9,1.26,12.91,1.1,18.72,2.8,3.62,1.06,7.66-1.69,11-.93,3.59-4.7,5-11.43,7.27-17.18,4.32-10.92,7.37-23.14,4.06-35.79-2.39-9.14-5.45-19.41-12.54-26.25-5.06-4.89-11.6-8.17-17.69-10.49-8.34-3.17-14.1,2.28-18.35,10-4.55,8.23-6.9,14.11-11.49,22.37-5.25,9.46-11.87,14.87-7.72,28.46C415.22,1293.11,425.86,1303.54,437.66,1306.06Z" transform="translate(-192.55 -821.49)"/><path class="cls-13" d="M468.14,1308.13l-.78-.2c-.15.21-.31.41-.47.61Z" transform="translate(-192.55 -821.49)"/><path class="cls-12" d="M458.11,1301.21l2.88.82c5.65,2.64,14-8.65,15.93-14.38a69.76,69.76,0,0,0,3.46-26.1c-1.88-22.93-19.79-33.72-34.87-30.08-14.85,3.59-20.14,17.83-18.21,37.94C429.64,1293.71,444.37,1294.56,458.11,1301.21Z" transform="translate(-192.55 -821.49)"/><path class="cls-15" d="M416.64,1216.79c-2.06,1.09-3.05-.37-4.19-3.6s-2-6.38-.42-7.14,3.76,3,4.54,4.9S418.53,1215.79,416.64,1216.79Z" transform="translate(-192.55 -821.49)"/><path class="cls-15" d="M406.63,1238.41c-2.47-.42-2.64-2.11-2-5.21s1.44-6,3.25-5.6,2,4.48,1.71,6.4S408.89,1238.8,406.63,1238.41Z" transform="translate(-192.55 -821.49)"/><path class="cls-15" d="M375.18,1241.47c-.94-2.61.42-3.17,3.42-3.28s5.9.1,6.55,2-2.82,3-4.62,3.21S376,1243.85,375.18,1241.47Z" transform="translate(-192.55 -821.49)"/><path class="cls-15" d="M387.94,1231.64c.58-2.47,2.12-2,4.88-.11s5.28,3.9,4.8,5.69-4.22.33-5.93-.72S387.4,1233.89,387.94,1231.64Z" transform="translate(-192.55 -821.49)"/><path class="cls-15" d="M404.21,1218.55c.87,2.63-.52,3.14-3.53,3.14s-5.93-.32-6.52-2.25,2.93-2.92,4.74-3S403.42,1216.15,404.21,1218.55Z" transform="translate(-192.55 -821.49)"/><path class="cls-15" d="M395.12,1257.3c-1.39,1.94-2.76.91-4.89-1.81s-4-5.48-2.89-6.86,4.3,1.35,5.66,2.93S396.4,1255.52,395.12,1257.3Z" transform="translate(-192.55 -821.49)"/><path class="cls-15" d="M385.12,1094.26c-1.36,2-2.74,1-4.91-1.7s-4-5.41-3-6.82,4.31,1.26,5.7,2.81S386.36,1092.45,385.12,1094.26Z" transform="translate(-192.55 -821.49)"/><path class="cls-15" d="M384.62,1119.87c-2.27.67-3-.91-3.68-4.22s-1-6.48.69-6.92,3.35,3.54,3.83,5.54S386.68,1119.26,384.62,1119.87Z" transform="translate(-192.55 -821.49)"/><path class="cls-15" d="M358.93,1136.65c-1.77-2.15-.82-3.29,1.7-4.71s5.07-2.49,6.34-.88-1.28,4.22-2.75,5.17S360.55,1138.62,358.93,1136.65Z" transform="translate(-192.55 -821.49)"/><path class="cls-15" d="M366.16,1121.41c-.42-2.68,1.07-2.87,4.12-2.24s6,1.52,6.21,3.49-3.48,2.17-5.33,1.89S366.54,1123.86,366.16,1121.41Z" transform="translate(-192.55 -821.49)"/><path class="cls-15" d="M370.33,1150.55c2.47.47,2.62,2.15,2,5.24s-1.52,5.91-3.33,5.53-1.92-4.51-1.63-6.42S368.08,1150.13,370.33,1150.55Z" transform="translate(-192.55 -821.49)"/><path class="cls-15" d="M349.48,1156.28c-1.78-2.15-.83-3.29,1.68-4.72s5.07-2.5,6.34-.9-1.27,4.23-2.74,5.19S351.1,1158.24,349.48,1156.28Z" transform="translate(-192.55 -821.49)"/><path class="cls-15" d="M364.07,1172.44c2.45.12,2.8,1.8,2.54,5s-.78,6.2-2.58,6.07-2.4-4.29-2.34-6.27S361.83,1172.33,364.07,1172.44Z" transform="translate(-192.55 -821.49)"/><path class="cls-15" d="M347.07,1168.55c-.42-2.68,1.08-2.88,4.13-2.25s5.94,1.53,6.2,3.49-3.47,2.17-5.32,1.9S347.45,1171,347.07,1168.55Z" transform="translate(-192.55 -821.49)"/><path class="cls-15" d="M356.92,1187.26c2.47.46,2.62,2.14,2,5.23s-1.53,5.91-3.34,5.53-1.91-4.5-1.62-6.41S354.66,1186.83,356.92,1187.26Z" transform="translate(-192.55 -821.49)"/><path class="cls-15" d="M336.06,1193c-1.77-2.14-.82-3.29,1.69-4.71s5.06-2.51,6.33-.9-1.27,4.22-2.73,5.18S337.69,1194.94,336.06,1193Z" transform="translate(-192.55 -821.49)"/><path class="cls-15" d="M333.66,1205.25c-.42-2.68,1.07-2.87,4.12-2.25s6,1.53,6.21,3.49-3.48,2.17-5.33,1.9S334,1207.7,333.66,1205.25Z" transform="translate(-192.55 -821.49)"/><path class="cls-15" d="M350.7,1209.05c-2.38.27-2.94-1.37-3.13-4.67s-.1-6.41,1.66-6.56,2.9,4,3.11,6S352.88,1208.8,350.7,1209.05Z" transform="translate(-192.55 -821.49)"/><path class="cls-15" d="M328.13,1209.81c2.37-.29,2.95,1.35,3.17,4.66s.14,6.41-1.61,6.58-2.93-3.94-3.16-6S326,1210.08,328.13,1209.81Z" transform="translate(-192.55 -821.49)"/><path class="cls-15" d="M349.76,1221.54c1.26,2.49,0,3.28-2.86,3.85s-5.71.83-6.6-1,2.32-3.52,4-4S348.61,1219.26,349.76,1221.54Z" transform="translate(-192.55 -821.49)"/><path class="cls-15" d="M330.82,1235.61c1.26,2.49,0,3.27-2.86,3.85s-5.72.83-6.6-1,2.32-3.52,4-4S329.67,1233.33,330.82,1235.61Z" transform="translate(-192.55 -821.49)"/><path class="cls-15" d="M351.61,1178.56c2.45.78,2.4,2.44,1.4,5.35s-2.21,5.55-4,4.94-1.43-4.64-.92-6.46S349.38,1177.85,351.61,1178.56Z" transform="translate(-192.55 -821.49)"/><path class="cls-15" d="M305.76,1111c2.45.79,2.41,2.44,1.41,5.36s-2.22,5.55-4,4.93-1.42-4.64-.91-6.46S303.53,1110.28,305.76,1111Z" transform="translate(-192.55 -821.49)"/><path class="cls-15" d="M311.78,1142.17c.18,2.67-1.35,2.7-4.38,1.77s-5.87-2.13-6-4.08,3.71-1.76,5.56-1.29S311.61,1139.73,311.78,1142.17Z" transform="translate(-192.55 -821.49)"/><path class="cls-15" d="M295.34,1143.36c.18,2.67-1.35,2.7-4.37,1.76s-5.88-2.12-6-4.08,3.71-1.75,5.55-1.29S295.18,1140.92,295.34,1143.36Z" transform="translate(-192.55 -821.49)"/><path class="cls-15" d="M297.19,1155.37c2,1.92,1.21,3.22-1.05,5s-4.6,3.27-6,1.83.71-4.46,2-5.64S295.38,1153.62,297.19,1155.37Z" transform="translate(-192.55 -821.49)"/><path class="cls-15" d="M340.09,1103.89c2.47.54,2.57,2.21,1.84,5.27s-1.7,5.83-3.51,5.38-1.79-4.54-1.45-6.43S337.84,1103.39,340.09,1103.89Z" transform="translate(-192.55 -821.49)"/><path class="cls-15" d="M301,1105.4c-2.42-1-2.27-2.58-1.08-5.38s2.6-5.31,4.36-4.56,1.14,4.68.51,6.43S303.15,1106.28,301,1105.4Z" transform="translate(-192.55 -821.49)"/><path class="cls-15" d="M372.34,1173.29c-1.86-2.06-1-3.27,1.44-4.85s4.89-2.81,6.23-1.27-1.05,4.33-2.46,5.38S374.05,1175.18,372.34,1173.29Z" transform="translate(-192.55 -821.49)"/><path class="cls-15" d="M386.58,1142.55c-2.41-1-2.25-2.6-1-5.39s2.62-5.29,4.38-4.53,1.12,4.69.48,6.43S388.79,1143.44,386.58,1142.55Z" transform="translate(-192.55 -821.49)"/><path class="cls-15" d="M375.18,1101.44c1.71,2.2.72,3.31-1.85,4.62s-5.17,2.29-6.4.65,1.42-4.15,2.92-5S373.61,1099.43,375.18,1101.44Z" transform="translate(-192.55 -821.49)"/><path class="cls-15" d="M381.81,1143.46c-.47,2.52-2,2.11-4.84.37s-5.4-3.65-5-5.48,4.17-.55,5.91.41S382.24,1141.16,381.81,1143.46Z" transform="translate(-192.55 -821.49)"/><path class="cls-15" d="M377.72,1267.3c-2.39-1.08-2.16-2.69-.82-5.39s2.87-5.11,4.61-4.27.92,4.71.2,6.41S379.9,1268.3,377.72,1267.3Z" transform="translate(-192.55 -821.49)"/><path class="cls-15" d="M361.58,1259.58c-.83-2.64.56-3.12,3.58-3.08s5.94.4,6.51,2.34-3,2.87-4.79,3S362.35,1262,361.58,1259.58Z" transform="translate(-192.55 -821.49)"/><path class="cls-15" d="M366.56,1274.69c-.83-2.63.56-3.12,3.58-3.07s5.94.4,6.51,2.34-3,2.87-4.79,3S367.33,1277.1,366.56,1274.69Z" transform="translate(-192.55 -821.49)"/><path class="cls-15" d="M392.25,1289.59c.21,2.67-1.31,2.73-4.35,1.83s-5.88-2.06-6-4,3.68-1.81,5.53-1.37S392.06,1287.15,392.25,1289.59Z" transform="translate(-192.55 -821.49)"/><path class="cls-15" d="M373.6,1282.07c2.09,1.77,1.42,3.14-.68,5.16s-4.3,3.68-5.81,2.35.38-4.56,1.58-5.87S371.69,1280.45,373.6,1282.07Z" transform="translate(-192.55 -821.49)"/><path class="cls-15" d="M384.5,1300c.59,2.67-.87,3-3.92,2.59s-6-1.07-6.35-3,3.28-2.46,5.13-2.33S384,1297.54,384.5,1300Z" transform="translate(-192.55 -821.49)"/><path class="cls-15" d="M363.39,1292.7c2.47.37,2.67,2,2.14,5.18s-1.31,6-3.12,5.69-2.06-4.44-1.83-6.37S361.13,1292.37,363.39,1292.7Z" transform="translate(-192.55 -821.49)"/><path class="cls-15" d="M335.65,1169.25c-2.39-1.08-2.16-2.69-.81-5.39s2.87-5.11,4.61-4.27.92,4.7.19,6.41S337.83,1170.25,335.65,1169.25Z" transform="translate(-192.55 -821.49)"/><path class="cls-15" d="M324.5,1176.64c-.84-2.63.56-3.12,3.58-3.07s5.93.4,6.5,2.34-3,2.87-4.78,2.95S325.26,1179.05,324.5,1176.64Z" transform="translate(-192.55 -821.49)"/><path class="cls-15" d="M331.53,1184c2.1,1.77,1.42,3.14-.68,5.16s-4.29,3.68-5.81,2.35.39-4.56,1.59-5.87S329.62,1182.4,331.53,1184Z" transform="translate(-192.55 -821.49)"/><path class="cls-15" d="M321.32,1194.65c2.47.36,2.68,2,2.15,5.18s-1.31,6-3.12,5.69-2.06-4.44-1.84-6.37S319.07,1194.32,321.32,1194.65Z" transform="translate(-192.55 -821.49)"/><path class="cls-15" d="M288.08,1117.62c-1.78-2.15-.83-3.3,1.68-4.72s5.06-2.5,6.33-.9-1.27,4.22-2.73,5.18S289.7,1119.58,288.08,1117.62Z" transform="translate(-192.55 -821.49)"/><path class="cls-15" d="M285.67,1129.88c-.42-2.68,1.07-2.87,4.12-2.24s5.95,1.52,6.21,3.49-3.48,2.17-5.33,1.89S286.05,1132.33,285.67,1129.88Z" transform="translate(-192.55 -821.49)"/><path class="cls-15" d="M287.66,1093.88c-2.38-1.08-2.15-2.69-.81-5.39s2.87-5.11,4.61-4.26.92,4.7.2,6.4S289.85,1094.88,287.66,1093.88Z" transform="translate(-192.55 -821.49)"/><path class="cls-15" d="M276.51,1101.28c-.83-2.64.56-3.13,3.58-3.08s5.94.4,6.51,2.34-3,2.87-4.79,3S277.27,1103.68,276.51,1101.28Z" transform="translate(-192.55 -821.49)"/><path class="cls-15" d="M283.55,1108.65c2.09,1.77,1.41,3.14-.68,5.16s-4.3,3.68-5.81,2.35.38-4.56,1.58-5.87S281.63,1107,283.55,1108.65Z" transform="translate(-192.55 -821.49)"/><path class="cls-15" d="M273.34,1119.28c2.46.37,2.67,2,2.14,5.18s-1.31,6-3.12,5.7-2.06-4.45-1.84-6.38S271.08,1119,273.34,1119.28Z" transform="translate(-192.55 -821.49)"/><path class="cls-15" d="M316.45,1096.82c1.91,2,1.06,3.26-1.3,4.92s-4.79,3-6.16,1.48.92-4.38,2.29-5.48S314.7,1095,316.45,1096.82Z" transform="translate(-192.55 -821.49)"/><path class="cls-15" d="M317.88,1084.22c.61,2.67-.84,3-3.89,2.64s-6-1-6.37-3,3.26-2.5,5.1-2.39S317.32,1081.78,317.88,1084.22Z" transform="translate(-192.55 -821.49)"/><path class="cls-15" d="M306.34,1131.63c-1.51,1.83-2.83.73-4.82-2.09s-3.69-5.67-2.55-7,4.26,1.61,5.55,3.26S307.73,1130,306.34,1131.63Z" transform="translate(-192.55 -821.49)"/><path class="cls-15" d="M318.66,1120.75c2.43.89,2.32,2.53,1.21,5.38s-2.44,5.41-4.21,4.72-1.27-4.67-.68-6.45S316.43,1120,318.66,1120.75Z" transform="translate(-192.55 -821.49)"/><path class="cls-15" d="M329.06,1112.29c1,2.59-.31,3.2-3.29,3.42s-5.86.13-6.57-1.78,2.7-3.16,4.48-3.4S328.13,1109.92,329.06,1112.29Z" transform="translate(-192.55 -821.49)"/><path class="cls-15" d="M321.58,1105.47c-2.19-1.6-1.63-3,.28-5.27s3.95-4.11,5.53-2.9,0,4.65-1.11,6.07S323.59,1106.93,321.58,1105.47Z" transform="translate(-192.55 -821.49)"/><path class="cls-15" d="M330.81,1093.82c-2.45-.15-2.78-1.83-2.5-5s.83-6.19,2.64-6,2.36,4.31,2.29,6.28S333.06,1094,330.81,1093.82Z" transform="translate(-192.55 -821.49)"/><path class="cls-15" d="M392.28,1303.3c2.47.37,2.67,2,2.15,5.18s-1.31,6-3.12,5.7-2.06-4.45-1.84-6.38S390,1303,392.28,1303.3Z" transform="translate(-192.55 -821.49)"/><path class="cls-15" d="M405.85,1321.05c2.47.37,2.67,2,2.14,5.18s-1.31,6-3.12,5.7-2.06-4.45-1.83-6.38S403.59,1320.72,405.85,1321.05Z" transform="translate(-192.55 -821.49)"/><path class="cls-15" d="M430.21,1325.59c.5,2.68-1,2.94-4,2.43s-5.95-1.29-6.28-3.25,3.38-2.33,5.23-2.13S429.74,1323.15,430.21,1325.59Z" transform="translate(-192.55 -821.49)"/><path class="cls-15" d="M372.32,1312.21c0-2.64,1.53-2.56,4.53-1.4s5.78,2.55,5.74,4.48-3.86,1.45-5.69.85S372.32,1314.63,372.32,1312.21Z" transform="translate(-192.55 -821.49)"/><path class="cls-15" d="M389.87,1323.07c2.27-.64,3,.94,3.64,4.25s.92,6.48-.76,6.9-3.32-3.57-3.79-5.57S387.79,1323.65,389.87,1323.07Z" transform="translate(-192.55 -821.49)"/><path class="cls-15" d="M384.7,1277c-2.39-1.09-2.16-2.69-.81-5.4s2.87-5.1,4.61-4.26.92,4.7.19,6.4S386.88,1278,384.7,1277Z" transform="translate(-192.55 -821.49)"/><path class="cls-15" d="M432.33,1271.79c-.84-2.63.56-3.12,3.58-3.07s5.93.4,6.5,2.34-3,2.87-4.79,3S433.09,1274.2,432.33,1271.79Z" transform="translate(-192.55 -821.49)"/><path class="cls-15" d="M466.57,1279.34c-2.47-.34-2.69-2-2.2-5.16s1.24-6,3-5.75,2.11,4.43,1.91,6.36S468.82,1279.64,466.57,1279.34Z" transform="translate(-192.55 -821.49)"/><path class="cls-15" d="M437.31,1286.91c-.84-2.64.56-3.12,3.58-3.07s5.93.4,6.5,2.34-3,2.86-4.78,2.94S438.07,1289.32,437.31,1286.91Z" transform="translate(-192.55 -821.49)"/><path class="cls-15" d="M453.18,1254.36c-2.46-.14-2.79-1.82-2.53-5s.8-6.2,2.6-6,2.39,4.29,2.32,6.26S455.42,1254.47,453.18,1254.36Z" transform="translate(-192.55 -821.49)"/><path class="cls-15" d="M455.45,1289.22c-2.39-1.08-2.16-2.69-.82-5.39s2.87-5.11,4.61-4.27.92,4.71.2,6.41S457.63,1290.22,455.45,1289.22Z" transform="translate(-192.55 -821.49)"/><path class="cls-15" d="M462.09,1263c-2.39-1.09-2.16-2.69-.82-5.4s2.87-5.1,4.61-4.26.92,4.7.2,6.4S464.27,1264,462.09,1263Z" transform="translate(-192.55 -821.49)"/><path class="cls-15" d="M447.67,1285.33c-2.46-.19-2.76-1.88-2.43-5.07s.93-6.16,2.74-6,2.3,4.34,2.2,6.3S449.92,1285.5,447.67,1285.33Z" transform="translate(-192.55 -821.49)"/><path class="cls-15" d="M459.91,1273.43c-1.52,1.83-2.83.73-4.83-2.1s-3.67-5.68-2.53-7,4.26,1.62,5.54,3.28S461.29,1271.76,459.91,1273.43Z" transform="translate(-192.55 -821.49)"/><path class="cls-15" d="M449.54,1255.65c.75,2.66-.67,3.08-3.7,2.91s-6-.64-6.46-2.59,3.08-2.72,4.91-2.73S448.85,1253.23,449.54,1255.65Z" transform="translate(-192.55 -821.49)"/><path class="cls-9" d="M530.05,1191.07c9.23,7.13,8.85,14.53,19.67,24.58,1.28,1.18-2.47,2.93-3.16,4.53-1,2.28-6-1.21-8.46-1.17a17.92,17.92,0,0,1-7.11-1.86c-12.42-5.32-30.72-13.8-37.35-26.31-1.66-3.13-13.68-22.26-9.13-22.33,13-.22,21.41,13.2,25.17,14.94C517.85,1187.23,520.56,1183.74,530.05,1191.07Z" transform="translate(-192.55 -821.49)"/><path class="cls-10" d="M509,1199.43c-13.92-9-17.84-42.32-47.79-36.11s-61.56,53.46-63.47,82.17,25.79,55.22,46.13,69.15c23.77,16.26,66.94,28.65,97.16-7.74,26.43-31.84,38.36-68,10-90.26C533.72,1203.05,531.76,1214.25,509,1199.43Z" transform="translate(-192.55 -821.49)"/><path class="cls-9" d="M564.19,1233.31c-2.5,16.08-12.21,33.45-25.71,49.71-30.21,36.4-73.38,24-97.15,7.74-15.62-10.69-35.56-28.79-43.13-49.61-.23,1.49-.4,2.93-.49,4.34-1.92,28.7,25.79,55.22,46.13,69.15,23.77,16.26,66.94,28.65,97.16-7.74C561.57,1282.12,573.35,1254.75,564.19,1233.31Z" transform="translate(-192.55 -821.49)"/><path class="cls-11" d="M459.43,1183.45a37.1,37.1,0,0,0-18.79,12.41c-2.84,3.42-5.22,7.44-5.63,11.87s1.56,9.28,5.53,11.27a6.06,6.06,0,0,0,3.3.71,9.09,9.09,0,0,0,4.26-2.12c6-4.49,12.46-9.1,19.92-10.19,3.56-.52,7.22-.2,10.76-.84s7.19-2.56,8.43-6c1.91-5.22-2.7-12.07-6.91-14.84C474.51,1182,465.91,1181.75,459.43,1183.45Z" transform="translate(-192.55 -821.49)"/><path class="cls-11" d="M433.34,1223.73c-2.66-1.9-6.75-.88-8.66,1.78a9,9,0,0,0-.24,9.31,5.43,5.43,0,0,0,3.89,3.12,5.52,5.52,0,0,0,3.52-1.1,9.8,9.8,0,0,0,4.15-5.41,7,7,0,0,0-1.41-6.51Z" transform="translate(-192.55 -821.49)"/><path class="cls-5" d="M505.47,1196.49s14-15.42,22.84-21.48,27.24-12.15,27.24-12.15l3.68,7.67s-14.18,1.34-25.84,8.75c-8.15,5.18-24.42,20.15-24.42,20.15Z" transform="translate(-192.55 -821.49)"/><path class="cls-16" d="M533.39,1179.28s25.28-3.44,39.9,7.07a131.75,131.75,0,0,1,30.61,31s-26.22,9.07-43.57-.13-32.56-33.88-32.56-33.88Z" transform="translate(-192.55 -821.49)"/><path class="cls-11" d="M561.57,1190.28a1.69,1.69,0,0,0-1,.48,1.85,1.85,0,0,0-.22,1.51,8,8,0,0,0,3.13,4.59,31.88,31.88,0,0,0,4.82,2.81,49.85,49.85,0,0,1,10.67,7.66,14.91,14.91,0,0,0,3.66,2.87c4.3,2,5-2.83,4.21-6.12-.77-3.06-2.82-4.5-5.32-6.2C575.66,1193.9,568.33,1188.72,561.57,1190.28Z" transform="translate(-192.55 -821.49)"/><path class="cls-17" d="M817,1205.07c-4.83-9-10.1-16.33-9.9-24.28.41-16.35,15.95-57.32,15.95-57.32l-44.94-17.4s-16.1,40.75-26.81,53.11c-5.2,6-14,7.86-23.67,11.27-18.33,6-180.32,346.06-180.32,346.06l-14.73,38s-10.18,26.28,13.68,34.7c21,7.4,24.06-13.14,34.91-8.37s4.54,10.53,9.36,19.52c5.65,10.52,27,18.78,38.24,14.81,9.62-3.39,8.84-11.91,20.07-8.13s-.3,21.07,20.16,29.71c23.31,9.84,33.49-16.44,33.49-16.44l14.72-38S826.54,1221.83,817,1205.07Z" transform="translate(-192.55 -821.49)"/><path class="cls-18" d="M673.73,1624.59c-20.46-8.65-8.93-25.93-20.16-29.71s-10.45,4.73-20.07,8.13c-11.26,4-32.59-4.29-38.24-14.81-4.83-9,1.49-14.76-9.36-19.53s-14,15.78-34.91,8.38c-23.86-8.42-13.68-34.7-13.68-34.7l-4.72,12.18s-10.18,26.28,13.68,34.7c21,7.4,24.06-13.14,34.91-8.37s4.54,10.53,9.36,19.52c5.65,10.52,27,18.78,38.24,14.81,9.62-3.39,8.84-11.91,20.07-8.12s-.3,21.06,20.16,29.7c23.31,9.84,33.49-16.44,33.49-16.44l4.72-12.18S697,1634.43,673.73,1624.59Z" transform="translate(-192.55 -821.49)"/><path class="cls-18" d="M817,1205.07c-4.83-9-10.1-16.33-9.9-24.28.41-16.35,15.95-57.32,15.95-57.32l-19.75-7.64s-15.54,41-15.95,57.31c-.2,7.94,5.07,15.26,9.9,24.28,9.53,16.76-99.79,377.24-99.79,377.24l-14.73,38s-6.82,17.62-22.09,18.6a24.53,24.53,0,0,0,8.36,5.49c23.31,9.84,33.49-16.44,33.49-16.44l14.72-38S826.54,1221.83,817,1205.07Z" transform="translate(-192.55 -821.49)"/><path class="cls-19" d="M818.47,1138.18,771.62,1120a7.18,7.18,0,0,1-4.11-9.29l9.22-23.81a7.18,7.18,0,0,1,9.29-4.1L832.88,1101a7.17,7.17,0,0,1,4.1,9.28l-9.22,23.81A7.18,7.18,0,0,1,818.47,1138.18Z" transform="translate(-192.55 -821.49)"/><path class="cls-19" d="M817.92,1147.79l-51.83-20.08a2.53,2.53,0,0,1-1.44-3.27l.31-.8a2.53,2.53,0,0,1,3.27-1.44l51.83,20.07a2.53,2.53,0,0,1,1.44,3.27l-.31.8A2.53,2.53,0,0,1,817.92,1147.79Z" transform="translate(-192.55 -821.49)"/><rect class="cls-20" x="776.2" y="1087.29" width="4.41" height="34.14" transform="translate(258.55 -1028.01) rotate(21.16)"/><rect class="cls-20" x="785.09" y="1090.73" width="4.41" height="34.14" transform="translate(260.73 -1031.07) rotate(21.17)"/><rect class="cls-20" x="795.3" y="1094.68" width="4.41" height="34.14" transform="translate(262.8 -1034.48) rotate(21.17)"/><rect class="cls-20" x="805.17" y="1098.51" width="4.41" height="34.14" transform="translate(264.81 -1037.78) rotate(21.17)"/><rect class="cls-20" x="814.23" y="1102.01" width="4.41" height="34.14" transform="translate(266.7 -1040.82) rotate(21.17)"/><rect class="cls-20" x="821.47" y="1104.82" width="4.41" height="34.14" transform="translate(268.19 -1043.24) rotate(21.17)"/><path class="cls-21" d="M832.63,1105l-49.45-19.15a1.31,1.31,0,0,1-.74-1.67h0a1.31,1.31,0,0,1,1.67-.74l49.45,19.16a1.28,1.28,0,0,1,.74,1.66h0A1.31,1.31,0,0,1,832.63,1105Z" transform="translate(-192.55 -821.49)"/><path class="cls-22" d="M763.43,1155.89c-2.65,5.36-6.09,10.55-11.09,13.83-2.26,1.48-4.79,2.54-6.93,4.18s-3.94,4.08-3.84,6.77c.16,4.41,5.49,7.16,9.79,6.21s7.59-4.38,10.33-7.83a109.63,109.63,0,0,0,14.74-25.64c1.3-3.08,5.2-16.41-2.2-16.59C769.31,1136.7,765.25,1152.17,763.43,1155.89Z" transform="translate(-192.55 -821.49)"/><path class="cls-22" d="M602.18,1581.73c-.45,3.81-.46,8.41,2,9.13,1.48.43,3.36-.86,4.75-2.67a30.52,30.52,0,0,0,3.34-6.25c3.53-8.07,12.42-24.5,2.37-25C605.57,1556.57,603.21,1572.85,602.18,1581.73Z" transform="translate(-192.55 -821.49)"/><polygon class="cls-19" points="468.49 462.87 409.17 582.64 560.14 641.11 596.81 510.75 468.49 462.87"/><polygon class="cls-23" points="461.29 477.39 592.22 528.1 589.01 539.7 455.96 488.17 461.29 477.39"/><polygon class="cls-23" points="420.97 558.8 567.54 615.56 562.93 631.21 413.89 573.49 420.97 558.8"/><path class="cls-22" d="M731.31,1201.41c-5.09-.9-8.61.06-17.5,19.95S582,1490.37,579.16,1496.1c-4,8.2-5.39,21.7,2.64,26.09,7.5,4.09,15.23,5.84,24.68-13.22s120.29-272.84,124-281.26S740.14,1203,731.31,1201.41Z" transform="translate(-192.55 -821.49)"/><path class="cls-22" d="M544.44,1559.37c-.26,3.88,0,8.61,3,9.52,1.78.55,3.92-.65,5.43-2.4a25.17,25.17,0,0,0,3.5-6.19c3.61-8,13-24.3,1-25.48C546.68,1533.76,545,1550.32,544.44,1559.37Z" transform="translate(-192.55 -821.49)"/><path class="cls-24" d="M195.44,1559C187,1640,198.53,1721.71,210,1802.41c2.65,18.66,5.93,38.64,19,52.19,17.18,17.75,44.93,18.43,69.63,17.91l534.85-11.12c16.53-.34,36.85-3.21,42.62-18.7,4.43-11.88-2.5-24.61-8-36a183.13,183.13,0,0,1-17.59-62c-4.18-42.13,6.31-84.12,11.86-126.09a543,543,0,0,0-4.11-168.21c-13.73-75.34-43.54-149.23-38.3-225.63-28.07,14.93-59.59,22-90.91,27.45A1012.11,1012.11,0,0,1,444.6,1261c-32.18-3.57-64.55-8.78-94.43-21.26-16-6.68-31.34-15.54-44.53-26.85-11.34-9.73-20.39-30.15-33-13.76-7.73,10.05-5.21,46.76-7.51,60.13-3.4,19.68-7.77,39.18-12.58,58.55C232.67,1397.94,204,1476.4,195.44,1559Z" transform="translate(-192.55 -821.49)"/><path class="cls-25" d="M868.07,1806.69a183.34,183.34,0,0,1-17.58-62c-4.18-42.13,6.31-84.12,11.86-126.09a543,543,0,0,0-4.11-168.21c-13.73-75.34-43.54-149.23-38.3-225.63-23.63,12.57-49.7,19.57-76,24.72,6.85,56.42,26.13,112,36.41,168.37a543,543,0,0,1,4.11,168.21c-5.55,42-16,84-11.86,126.1a183.13,183.13,0,0,0,17.58,62c5.56,11.39,12.49,24.12,8.06,36-5.78,15.5-26.09,18.36-42.63,18.71L220.73,1840l-1.49,0a52.39,52.39,0,0,0,9.79,14.6c17.18,17.75,44.93,18.43,69.63,17.91l534.85-11.12c16.53-.34,36.85-3.21,42.62-18.7C880.56,1830.81,873.63,1818.08,868.07,1806.69Z" transform="translate(-192.55 -821.49)"/><path class="cls-26" d="M850.42,1744.25a218.76,218.76,0,0,1-.75-31.13c-1,0-2,.09-3,.19-10.71,1-20.89,5-31.46,7-16.31,3.06-33.07,1.21-49.63,0-130-9.21-258.89,24.22-388.76,35.17-36.27,3.06-73.23,4-109.26-2-20.75-3.46-44.23-14.9-66.21-13.5,2.65,21,5.65,42,8.65,62.87,2.68,18.65,6,38.63,19.11,52.16,17.2,17.72,45,18.36,69.65,17.81L833.6,1861c16.54-.37,36.85-3.27,42.6-18.77,4.41-11.89-2.53-24.61-8.11-36A183.32,183.32,0,0,1,850.42,1744.25Z" transform="translate(-192.55 -821.49)"/><path class="cls-27" d="M868.08,1806.86a183.13,183.13,0,0,1-16.79-55.38c-.33-2.35-.63-4.7-.86-7a217.34,217.34,0,0,1-.76-31.13c-1,0-2,.09-3,.18-10.71,1-20.89,5-31.45,7-13.67,2.56-27.66,1.67-41.57.63a182.81,182.81,0,0,0,16.49,53.22c5.55,11.39,12.48,24.12,8.05,36-5.77,15.5-26.09,18.36-42.62,18.71l-534.85,11.11-1.49,0a52,52,0,0,0,9.8,14.59c17.17,17.76,44.93,18.43,69.62,17.92l242.45-5,292.5-6.5c16.53-.36,36.84-3.26,42.6-18.77a22.5,22.5,0,0,0,1.13-4.39C878.7,1827.56,872.88,1816.71,868.08,1806.86Z" transform="translate(-192.55 -821.49)"/><path class="cls-25" d="M394,1483.62c13.2,26.86,18.06,56.54,23.17,85.73s10.81,58.84,25.43,85,39.77,48.84,70.77,54.13c18,3.07,36.42.18,54.57-1.87a589.84,589.84,0,0,1,69.44-3.72c22.65.12,49,0,62.86-16.85,7.78-9.48,9.38-22.1,10.08-34a348.58,348.58,0,0,0-2-63.45l-26.47,19.8a20.44,20.44,0,0,0-4.8,4.46c-1.73,2.53-2.13,5.65-2.45,8.64-1.61,15-2.8,31.22-13.07,42.83-9.19,10.37-23.8,14.86-37.82,17.8a289.82,289.82,0,0,1-98.56,3.45c-12.82-1.76-25.76-4.47-36.92-10.66-20.13-11.16-31.89-32.32-37.15-53.71s-5-43.57-6.93-65.44c-.95-10.7-2.6-21.82-9.12-30.63s-19.34-14.41-29.74-10Z" transform="translate(-192.55 -821.49)"/><path class="cls-25" d="M425.58,1423c2.63-18.49,6.22-36.93,6.53-55.6.62-37.53-12-73.85-24.47-109.25,8.21.22,17.08.68,23.45,5.86,7.17,5.82,9.05,15.8,10.45,24.93,9.59,62.31,19.08,126.73,3,187.68-6.14,23.27-16,47.44-9.33,70.55-2.58-8.94-13-17.92-16.42-27.65-3.23-9.24-4.48-17.76-2.44-27.28C421.25,1469.33,422.27,1446.27,425.58,1423Z" transform="translate(-192.55 -821.49)"/><path class="cls-25" d="M684.46,1447.31A330.82,330.82,0,0,1,702.05,1650c-.41,1.77-.89,3.64-2.22,4.87-3,2.82-8,.59-11-2.28-12.19-11.79-13.16-30.74-12.67-47.69q.82-28.23,4.11-56.32c1.89-16.21,4.4-32.68,1.46-48.72-2.26-12.28-7.6-23.74-11.76-35.52-10.86-30.83-13.49-63.85-16-96.44-.39-5-.27-10,4-12.73,6.85,9.61,3.18,29,6.11,40.6C668.61,1413.75,677.27,1430.37,684.46,1447.31Z" transform="translate(-192.55 -821.49)"/><path class="cls-26" d="M441.33,1585.61c12.27,16.68,26.94,31.85,44.53,42.77,15.55,9.67,33,15.82,50.77,20.42,26.7,6.94,54.76,10.52,81.9,5.59s53.36-19.14,68.68-42.07c19.35-29,18.87-67,11.08-100.93s-22.06-66.22-28.28-100.48c-9.09-50-.59-101.12,9.69-151.14q-17.22,2.12-34.51,3.65A400.38,400.38,0,0,0,648.88,1458c8,29.52,19.49,58.23,24.09,88.47,1.86,12.26,2.5,25.23-2.38,36.63-7.64,17.85-26.83,27.72-45.35,33.54-27.6,8.67-57.43,11.51-85.61,5s-54.53-22.95-70.27-47.21c-7.84-12.08-12.9-25.7-19.24-38.63-5.65-11.54-12.33-22.56-17.69-34.24-8.91-19.4-14.07-40.34-17.28-61.45-9.74-64.16,2.28-120.32,20.53-179.86-9.67-1.17-19.33-2.55-28.91-4.27-5.59,14.85-7.29,34.9-9.16,45.38-6.76,38.07-10.92,76.75-9.62,115.46C390,1476.65,405.8,1537.35,441.33,1585.61Z" transform="translate(-192.55 -821.49)"/><path class="cls-28" d="M283.43,1346c.29,23.41-6.06,46.6-16.2,67.7-10.83,22.55-26.15,43.45-31.24,67.94s4.64,54.93,28.68,61.86c16.84,4.85,35.53-3.89,46.12-17.86s14.2-32.1,14.42-49.63c.17-14-1.6-28.24,1.74-41.84,3.71-15.12,13.37-28,20.64-41.73,19.05-36.1,22.71-92.7-14.67-119.41-14-10-29.72-10.31-41.21,3.43C275.61,1295.73,283.15,1323.33,283.43,1346Z" transform="translate(-192.55 -821.49)"/><path class="cls-28" d="M228,1578.05c-5.88,7.58-5.82,18.06-5.26,27.64A561.65,561.65,0,0,0,247.39,1741c4.06,12.93,8.74,26,17.1,36.63s21.09,18.72,34.63,18.33c1.9,0,4-.36,5.23-1.79s1.29-3.42,1.25-5.27c-.45-18.72-5.75-37.1-5.8-55.83-.06-20.8,6.34-41,11.35-61.18s8.67-41.56,3.17-61.62C306.3,1581,253.52,1545.09,228,1578.05Z" transform="translate(-192.55 -821.49)"/><path class="cls-25" d="M736.74,1652.43c-3.78,5-7.79,10-9.62,16s-1,13.26,3.85,17.27c2.7,2.25,6.23,3.18,9.63,4.06l38.14,9.77c4.35,1.12,9,2.22,13.23.58a18.69,18.69,0,0,0,6.19-4.53c19.66-19.72,25.83-49.34,25.76-77.19,0-13.94,7.61-97.53-21.67-76-10.2,7.49-29.9,51.67-35.79,63A326.52,326.52,0,0,1,736.74,1652.43Z" transform="translate(-192.55 -821.49)"/><path class="cls-29" d="M515.84,1086.91a24.39,24.39,0,0,1,3.61,3.64q1.71,2.1,3.21,4.11a7.31,7.31,0,0,1,1.15-1.06,6.26,6.26,0,0,1,1.34-.76,3.2,3.2,0,0,1,1.33-.27,1.83,1.83,0,0,1,1.18.42,2.8,2.8,0,0,1,.44.52,3.79,3.79,0,0,1,.42.77,2.3,2.3,0,0,1,.16.86,1.31,1.31,0,0,1-.28.79l-2.47,3a.76.76,0,0,0-.1.9,6.32,6.32,0,0,0,.53.84c.72.91,1.33,1.71,1.83,2.41l1.28,1.77c.34.48.63.87.85,1.17a3.87,3.87,0,0,0,.59.64c.2.16.39.31.59.44s.45.33.76.58l.23.19q.18.15.45.42a5.24,5.24,0,0,1,.66.9,2.64,2.64,0,0,1,.42,1.16,1.81,1.81,0,0,1-.48,1.38,2.6,2.6,0,0,1-1.1.84,2.73,2.73,0,0,1-1.23.17,4,4,0,0,1-1.26-.35,5.46,5.46,0,0,1-1.16-.71,5.78,5.78,0,0,1-.92-.94l-5-6.81q-.78,1.38-1.38,2.49l-1.18,2.2c-.43.8-.79,1.51-1.08,2.12l-.75,1.55-.54,1.08a3.33,3.33,0,0,1-.43.69,6.13,6.13,0,0,1-.66.69,3.19,3.19,0,0,1-.72.51,1.71,1.71,0,0,1-.77.15,1.44,1.44,0,0,1-.8-.35,2.74,2.74,0,0,1-.79-1,3.29,3.29,0,0,1-.28-1.15,3.9,3.9,0,0,1,.13-1.17,5.34,5.34,0,0,1,.42-1.1c.15-.28.33-.65.56-1.1s.46-1,.73-1.51l.83-1.72c.29-.6.56-1.18.82-1.75.38-.84.71-1.56,1-2.15s.53-1.08.75-1.48.41-.72.55-1a4.5,4.5,0,0,1,.39-.57c-.63-1-1.27-1.93-1.93-2.81s-1.3-1.7-1.9-2.42-1.16-1.36-1.67-1.89a14.82,14.82,0,0,0-1.24-1.18,7.39,7.39,0,0,0-1.26-.83,3.44,3.44,0,0,0-1.28-.4,2.49,2.49,0,0,0-1.25.21,3.26,3.26,0,0,0-1.18,1,6.13,6.13,0,0,0-1.26,2.89,14.51,14.51,0,0,0-.13,3.57,26.81,26.81,0,0,0,.59,3.79c.3,1.28.59,2.48.89,3.6a1.06,1.06,0,0,1-.16,1,1.89,1.89,0,0,1-.32.3,1.67,1.67,0,0,1-.46.24,1.39,1.39,0,0,1-.54.07,1,1,0,0,1-.54-.23,1.46,1.46,0,0,1-.25-.24,16,16,0,0,1-1.91-3.42c-.54-1.27-1.07-2.56-1.59-3.86a6.18,6.18,0,0,1-.4-1.51,15.6,15.6,0,0,1-.13-1.71c0-.59,0-1.18,0-1.77s.09-1.14.15-1.65a7.37,7.37,0,0,1,.78-2.49,13.17,13.17,0,0,1,1.4-2.14,8,8,0,0,1,2.66-2.19,7.39,7.39,0,0,1,3-.75,8.34,8.34,0,0,1,3.11.55A10.52,10.52,0,0,1,515.84,1086.91Z" transform="translate(-192.55 -821.49)"/><path class="cls-29" d="M500.53,1109.26a3.39,3.39,0,0,1,1.23,1.87,3.25,3.25,0,0,1-.21,2.12c.19.43.44,1.06.72,1.87a26.08,26.08,0,0,1,.8,2.79,29.12,29.12,0,0,1,.58,3.39,19.51,19.51,0,0,1,.07,3.67,15,15,0,0,1-.73,3.66,10.46,10.46,0,0,1-1.84,3.34,9.25,9.25,0,0,1-2.18,2,5.79,5.79,0,0,1-2.19.9,4.65,4.65,0,0,1-2.13-.15,5.8,5.8,0,0,1-1.95-1,6.6,6.6,0,0,1-1.3-1.4,6.53,6.53,0,0,1-1.27-3,11.59,11.59,0,0,1,0-3.38,16.09,16.09,0,0,1,.87-3.51,36.64,36.64,0,0,1,1.43-3.39c.53-1.09,1.09-2.1,1.66-3s1.08-1.74,1.53-2.41a7.13,7.13,0,0,0-1.85-2.32,3,3,0,0,0-2.88-.62,6.41,6.41,0,0,0-3.07,2.29,11,11,0,0,0-1.42,2.24,15.68,15.68,0,0,0-.89,2.35,20,20,0,0,0-.51,2.31c-.13.75-.22,1.45-.27,2.11a19.64,19.64,0,0,1-.35,2.3,3.76,3.76,0,0,1-.68,1.61c-.31.38-.6.54-.87.5a1.57,1.57,0,0,1-.73-.33c-.13-.1-.24-.2-.35-.3l-.25-.26a4.79,4.79,0,0,1-.81-1.42,4.88,4.88,0,0,1-.33-1.69,20.09,20.09,0,0,1,1.28-7,22.65,22.65,0,0,1,3.51-5.94q.44-.54,1.11-1.23a13.16,13.16,0,0,1,1.51-1.31,10,10,0,0,1,1.86-1.08,6.32,6.32,0,0,1,2.14-.55,6.19,6.19,0,0,1,2.36.3,7.74,7.74,0,0,1,2.55,1.44,14.38,14.38,0,0,1,2.14,2.23,1.31,1.31,0,0,1,1.73,0Zm-5.24,19.31a.72.72,0,0,0,.16.21l.21.17a1.36,1.36,0,0,0,1.29.29,2.52,2.52,0,0,0,1.19-.84,5.33,5.33,0,0,0,1.07-2.39,11.86,11.86,0,0,0,.17-2.87,15.77,15.77,0,0,0-.46-2.87,15.11,15.11,0,0,0-.79-2.34,27.17,27.17,0,0,0-2,3.35,15,15,0,0,0-1.15,3,8.13,8.13,0,0,0-.29,2.48A3.48,3.48,0,0,0,495.29,1128.57Z" transform="translate(-192.55 -821.49)"/><path class="cls-29" d="M464.9,1137.26a11.43,11.43,0,0,1,1.45,1.44,17.47,17.47,0,0,0,2.15,2c0-.8.06-1.7.05-2.71s0-2,.1-3a17.82,17.82,0,0,1,.43-2.87,5,5,0,0,1,2.25-3.31,4.54,4.54,0,0,1,1.39-.61A8.79,8.79,0,0,1,476,1128a5.7,5.7,0,0,1,2.65,1.27,8.39,8.39,0,0,1,1.1,1.06c.36.4.74.88,1.16,1.45a25.28,25.28,0,0,1,4.23,8.34,26.25,26.25,0,0,1,1,9.44,8.26,8.26,0,0,1-.88,3.28,15.72,15.72,0,0,1-1.69,2.58c-.29.34-.62.71-1,1.11l-1.08,1.06c-.21.41-.39.73-.54,1a7.5,7.5,0,0,1-.51.73,4,4,0,0,1-1.1,1,2.32,2.32,0,0,1-1.08.33,2.43,2.43,0,0,1-1-.17,3.4,3.4,0,0,1-.93-.55,4.35,4.35,0,0,1-1-1.09l-.79-1.24-9.53-12.7c-.6-.59-1.15-1.13-1.66-1.61a10,10,0,0,1-1.3-1.51l-.37-.58a2.41,2.41,0,0,1-.32-.81,2.62,2.62,0,0,1,0-1,2.31,2.31,0,0,1,.51-1,7.43,7.43,0,0,1,1-1,2.15,2.15,0,0,1,.79-.43,1,1,0,0,1,.65,0A2.62,2.62,0,0,1,464.9,1137.26Zm13-2q-.25-.36-.75-.93a9.16,9.16,0,0,0-1.1-1.06,4.07,4.07,0,0,0-1.25-.71,1,1,0,0,0-1.13.39,5,5,0,0,0-1,2.13,11,11,0,0,0-.25,2.37c0,1.08.06,2.22.17,3.43a33,33,0,0,0,.53,3.59,24.41,24.41,0,0,0,.95,3.41,11.82,11.82,0,0,0,1.46,2.86,16.5,16.5,0,0,0,1.27,1.54,13.63,13.63,0,0,0,1.44,1.37,1.86,1.86,0,0,0,.69.34.69.69,0,0,0,.71-.3,8,8,0,0,0,1.38-2.58,13.08,13.08,0,0,0,.6-3.11,16.67,16.67,0,0,0-.1-3.37,22,22,0,0,0-.72-3.43,20.32,20.32,0,0,0-1.24-3.21A17.91,17.91,0,0,0,477.87,1135.29Z" transform="translate(-192.55 -821.49)"/><path class="cls-30" d="M436.89,1141c6.69-7.89,12-17.41,12.7-27.74.32-5-5.42-29.76-14-23.33-3.77,2.81-5.11,11.3-5.81,15.61a51.6,51.6,0,0,0,.07,17.18A48.83,48.83,0,0,0,436.89,1141Z" transform="translate(-192.55 -821.49)"/><path class="cls-30" d="M448.33,1097.93c5.79,5.59,13,9.5,20.59,12.24a31.2,31.2,0,0,0-8-23.69,30.88,30.88,0,0,0-10-7.13c-2.44-1.1-9.54-4.18-12.13-2.52C433.35,1080.31,445.49,1095.19,448.33,1097.93Z" transform="translate(-192.55 -821.49)"/></svg>