<svg id="Layer_1" data-name="Layer 1" xmlns="http://www.w3.org/2000/svg" viewBox="0 0 2547.94 2823.92"><defs><style>.cls-1{fill:#fff;}.cls-2{fill:#ec2453;}.cls-3{fill:#102770;}.cls-4{opacity:0.3;}.cls-5{opacity:0.55;}.cls-6{fill:#a82a51;}.cls-7{fill:#e84fc1;}.cls-8{fill:#6aac12;}.cls-9{fill:#59a532;}.cls-10{fill:#6b184e;}.cls-11{fill:#0faf98;}.cls-12{fill:#9ed15a;}.cls-13{fill:#33ae54;}.cls-14{fill:#fca336;}.cls-15{fill:#ffa726;}.cls-16{fill:#7faf35;}.cls-17{opacity:0.2;}</style></defs><path class="cls-1" d="M1041.7,2163.07c0-7.81-20.39-14.47-49.23-17.21A13.21,13.21,0,0,1,980.59,2134c-2.73-28.84-9.4-49.22-17.21-49.22s-14.47,20.38-17.2,49.22a13.21,13.21,0,0,1-11.88,11.88c-28.84,2.74-49.23,9.4-49.23,17.21s20.39,14.47,49.23,17.2a13.22,13.22,0,0,1,11.88,11.89c2.73,28.83,9.4,49.22,17.2,49.22s14.48-20.39,17.21-49.22a13.22,13.22,0,0,1,11.88-11.89C1021.31,2177.54,1041.7,2170.88,1041.7,2163.07Z" transform="translate(-696.89 -567.56)"/><circle class="cls-1" cx="883.38" cy="2688.71" r="25.05" transform="translate(-2633.87 2355.95) rotate(-76.57)"/><circle class="cls-1" cx="733.37" cy="2404.86" r="36.48" transform="translate(-2182.58 655.38) rotate(-45)"/><path class="cls-1" d="M3084.23,1312.8c0-7.81-20.39-14.47-49.23-17.21a13.2,13.2,0,0,1-11.88-11.88c-2.73-28.84-9.4-49.22-17.21-49.22s-14.47,20.38-17.2,49.22a13.21,13.21,0,0,1-11.88,11.88c-28.84,2.74-49.23,9.4-49.23,17.21s20.39,14.47,49.23,17.2a13.22,13.22,0,0,1,11.88,11.89c2.73,28.83,9.4,49.22,17.2,49.22s14.48-20.39,17.21-49.22A13.21,13.21,0,0,1,3035,1330C3063.84,1327.27,3084.23,1320.6,3084.23,1312.8Z" transform="translate(-696.89 -567.56)"/><circle class="cls-1" cx="2522.89" cy="873.6" r="25.05"/><circle class="cls-1" cx="3133.2" cy="1719.35" r="36.48" transform="translate(43.09 3806.15) rotate(-76.72)"/><circle class="cls-2" cx="2012.22" cy="1433.16" r="220.01" transform="translate(-1120.93 1275.06) rotate(-45)"/><path class="cls-3" d="M2012.51,1655.77a223.16,223.16,0,0,1-196-116.84c-58.32-107.94-18-243.21,90-301.53s243.21-18,301.53,90h0a222.68,222.68,0,0,1-195.47,328.37Zm-.66-440.08a216.2,216.2,0,0,0-103,26.11c-105.52,57-145,189.24-88,294.75a217.5,217.5,0,1,0,382.72-206.78C2164.29,1257,2089.24,1215.69,2011.85,1215.69Z" transform="translate(-696.89 -567.56)"/><g class="cls-4"><path class="cls-3" d="M2218.86,1508.44a218.72,218.72,0,0,1-102.07,118.29c-106.9,57.76-240.39,17.91-298.14-89a220,220,0,0,1,7.71-222.35,219.14,219.14,0,0,0,13.09,179.85c57.75,106.9,191.25,146.74,298.14,89A218.74,218.74,0,0,0,2218.86,1508.44Z" transform="translate(-696.89 -567.56)"/></g><g class="cls-5"><path class="cls-1" d="M2205.77,1328.59c48.73,90.2,28,199.32-43.89,265.9,54.63-67,66.7-162.94,23.06-243.7a218.44,218.44,0,0,0-31.12-43.83c-22.79,8.38-43.09-12.41-40.25-34.58a220.33,220.33,0,0,0-271.7,21.51,218.26,218.26,0,0,1,65.76-54.28C2014.53,1181.86,2148,1221.7,2205.77,1328.59Z" transform="translate(-696.89 -567.56)"/></g><path class="cls-3" d="M2012.53,1668.28a235.72,235.72,0,0,1-207.07-123.41c-61.59-114-19-256.87,95-318.47s256.87-19,318.47,95.06h0a235.19,235.19,0,0,1-206.45,346.82Zm-.66-440.09a203.66,203.66,0,0,0-97.1,24.61c-99.45,53.73-136.65,178.36-82.92,277.81a205,205,0,1,0,360.73-194.9h0C2155.55,1267.16,2084.82,1228.19,2011.87,1228.19Z" transform="translate(-696.89 -567.56)"/><path class="cls-6" d="M2018.83,1458.51l35.07,119.29a10.2,10.2,0,0,1-7.63,12.84,161.21,161.21,0,0,1-188.11-110.47,10.17,10.17,0,0,1,7.44-12.84l119.89-27.95a26.92,26.92,0,0,1,21.06,3.5c.27.18.54.36.81.52A26.65,26.65,0,0,1,2018.83,1458.51Z" transform="translate(-696.89 -567.56)"/><path class="cls-6" d="M1982.61,1426.68l-121.85-26.75a5.8,5.8,0,0,1-4.43-7,160.86,160.86,0,0,1,207.75-112.18,5.8,5.8,0,0,1,3.46,7.56l-44.43,116.67C2017.89,1417,2005.24,1432.13,1982.61,1426.68Z" transform="translate(-696.89 -567.56)"/><path class="cls-6" d="M2153.94,1356.59a161.11,161.11,0,0,1-25.15,187.78A11.49,11.49,0,0,1,2112,1544l-83.16-92.71a25.06,25.06,0,0,1-6.4-16.3v-.28a25.09,25.09,0,0,1,7.78-18.63l90-85.85a11.45,11.45,0,0,1,16.74.92A160.27,160.27,0,0,1,2153.94,1356.59Z" transform="translate(-696.89 -567.56)"/><path class="cls-7" d="M1755.94,1733.4c-95.26-51.58-214.34-16.15-265.87,79s-16.21,214.35,79,265.87,214.29,16.21,265.87-79.05S1851.14,1785,1755.94,1733.4Zm25.89,237.09a135.69,135.69,0,1,1-54.73-183.92A135.72,135.72,0,0,1,1781.83,1970.49Z" transform="translate(-696.89 -567.56)"/><g class="cls-5"><path class="cls-1" d="M1597.9,2025.21a135.67,135.67,0,0,1,13.5-245,135.63,135.63,0,1,0,75.75,259A134.79,134.79,0,0,1,1597.9,2025.21Z" transform="translate(-696.89 -567.56)"/></g><g class="cls-4"><path class="cls-3" d="M1603.07,2068.47c-95.25-51.53-130.63-170.62-79-265.87a195.31,195.31,0,0,1,105.41-90.9,195.8,195.8,0,0,0-147.6,101.14c-51.59,95.25-16.21,214.34,79.05,265.87a195.52,195.52,0,0,0,160.4,11.85A194.67,194.67,0,0,1,1603.07,2068.47Z" transform="translate(-696.89 -567.56)"/></g><g class="cls-5"><path class="cls-1" d="M1762.81,1733.08a195.57,195.57,0,0,0-150.48-15.18,195,195,0,0,1,116.84,22.26c95.2,51.59,130.63,170.67,79,265.87a195.49,195.49,0,0,1-115.39,94.24,195.89,195.89,0,0,0,149-101.32C1893.44,1903.75,1858,1784.66,1762.81,1733.08Z" transform="translate(-696.89 -567.56)"/></g><path class="cls-3" d="M1662.15,2117A209.83,209.83,0,0,1,1562,2091.54c-102.37-55.45-140.55-183.84-85.11-286.21s183.85-140.53,286.21-85.1,140.55,183.84,85.1,286.21h0C1810,2076.93,1737.2,2117,1662.15,2117Zm.67-392.21a181.31,181.31,0,0,0-159.59,94.84c-47.56,87.82-14.81,198,73,245.54s198,14.81,245.53-73,14.81-198-73-245.54A180,180,0,0,0,1662.82,1724.78ZM1835,1999.29h0Z" transform="translate(-696.89 -567.56)"/><path class="cls-3" d="M1662.28,2054.13a148.25,148.25,0,0,1-130.07-218.82h0a148.19,148.19,0,1,1,172.53,212.6A148.81,148.81,0,0,1,1662.28,2054.13Zm.42-271.48a123.69,123.69,0,0,0-35.3,5.17,122.36,122.36,0,0,0-73.21,59.4h0a123.06,123.06,0,1,0,108.51-64.57Zm-119.5,58.62h0Z" transform="translate(-696.89 -567.56)"/><path class="cls-7" d="M2096.07,658.57c-95.26-51.58-214.34-16.15-265.87,79s-16.21,214.34,79,265.87,214.29,16.21,265.87-79S2191.27,710.15,2096.07,658.57ZM2122,895.66a135.69,135.69,0,1,1-54.73-183.92A135.72,135.72,0,0,1,2122,895.66Z" transform="translate(-696.89 -567.56)"/><path class="cls-3" d="M2002.37,1029.76a198.68,198.68,0,1,1,94.89-373.39h0c96.31,52.19,132.23,173,80.06,269.26a197.26,197.26,0,0,1-118.07,95.8A199.45,199.45,0,0,1,2002.37,1029.76Zm.57-392.44a194.38,194.38,0,0,0-55.49,8.13,193.62,193.62,0,1,0,225.47,277.8c50.86-93.86,15.85-211.61-78-262.49A192.71,192.71,0,0,0,2002.94,637.32Zm-.52,332a138.21,138.21,0,1,1,66-259.76c67,36.28,92,120.31,55.72,187.31A137.29,137.29,0,0,1,2042,963.5,138.88,138.88,0,0,1,2002.42,969.3Zm.44-271.49a133.89,133.89,0,0,0-38.18,5.6,133.18,133.18,0,1,0,155.08,191.06l2.2,1.19-2.2-1.19c35-64.58,10.87-145.57-53.72-180.54A132.23,132.23,0,0,0,2002.86,697.81Z" transform="translate(-696.89 -567.56)"/><g class="cls-5"><path class="cls-1" d="M1938,950.38a135.67,135.67,0,0,1,13.5-245,135.63,135.63,0,1,0,75.75,259A134.85,134.85,0,0,1,1938,950.38Z" transform="translate(-696.89 -567.56)"/></g><g class="cls-4"><path class="cls-3" d="M1943.2,993.64c-95.25-51.53-130.63-170.62-79-265.87a195.27,195.27,0,0,1,105.41-90.9A195.8,195.8,0,0,0,1822,738c-51.59,95.25-16.21,214.34,79,265.87a195.56,195.56,0,0,0,160.4,11.85A194.67,194.67,0,0,1,1943.2,993.64Z" transform="translate(-696.89 -567.56)"/></g><g class="cls-5"><path class="cls-1" d="M2102.94,658.25a195.61,195.61,0,0,0-150.48-15.19,195,195,0,0,1,116.84,22.27c95.2,51.59,130.63,170.67,79,265.87A195.44,195.44,0,0,1,2033,1025.43a195.86,195.86,0,0,0,149-101.31C2233.57,828.92,2198.14,709.83,2102.94,658.25Z" transform="translate(-696.89 -567.56)"/></g><path class="cls-3" d="M2002.33,1042.28a211.79,211.79,0,1,1,60.48-8.86A212.15,212.15,0,0,1,2002.33,1042.28Zm.58-392.44a182,182,0,0,0-51.89,7.6,181.12,181.12,0,1,0,210.89,259.88h0a181.27,181.27,0,0,0-159-267.48Z" transform="translate(-696.89 -567.56)"/><path class="cls-3" d="M2002.42,979.3a148.26,148.26,0,0,1-130.09-218.82h0c38.92-71.85,129-98.64,200.88-59.73s98.65,129,59.73,200.87a147.17,147.17,0,0,1-88.07,71.46A148.79,148.79,0,0,1,2002.42,979.3Zm-108.1-206.91a123.19,123.19,0,1,0,167-49.66,122.3,122.3,0,0,0-167,49.66Z" transform="translate(-696.89 -567.56)"/><path class="cls-8" d="M2581.18,1444.49c104.23-127.8,145.14-370.67,72-553.26-90.05-191.68-278-137.29-271.69,29,13,140.06,1.06,282-43.7,390.8-19.27,46.84-14.89,101.13,15.83,141.39,35.9,47,101.53,71.5,182.29,29.49A145.25,145.25,0,0,0,2581.18,1444.49Z" transform="translate(-696.89 -567.56)"/><g class="cls-4"><path class="cls-3" d="M2545.11,778.05c-46.32,19.16-79.94,70.15-77.25,142,13,140.1,1,282-43.72,390.85-19.26,46.81-14.85,101.09,15.86,141.35,15.15,19.89,35.61,35.74,60.34,44.26-64.38,19.42-116.25-4.26-146.69-44.17-30.72-40.26-35.12-94.55-15.86-141.36,44.74-108.84,56.7-250.75,43.72-390.84C2377.23,807.64,2462,746.35,2545.11,778.05Z" transform="translate(-696.89 -567.56)"/></g><g class="cls-5"><path class="cls-1" d="M2581.16,1444.47a144.06,144.06,0,0,1-45.25,37.38c-26.72,13.92-51.78,20.55-74.64,21.48a202.46,202.46,0,0,0,39.29-15.74,144.12,144.12,0,0,0,45.26-37.38c96.38-118.17,138.65-334.65,86.63-511-32.39,3.36-54-47.68-28.3-68.29-39-66.43-91.12-95.54-138.3-95.46,60-20.15,138.22,11.22,187.34,115.75C2726.34,1073.83,2685.4,1316.67,2581.16,1444.47Z" transform="translate(-696.89 -567.56)"/></g><path class="cls-3" d="M2455.73,1520c-51.06,0-90.91-25.78-115.21-57.63-33.2-43.51-40.09-103.93-18-157.68,41.08-99.87,56.18-235.89,42.53-383q0-.45-.06-.9c-3.09-81.94,39.48-147.85,105.94-164,56.85-13.82,142.61,11.26,197.18,127.41.13.29.26.59.38.89,72.06,179.92,39.31,430.21-74.54,569.82h0a160.88,160.88,0,0,1-50.43,41.59C2511.65,1513.09,2482.18,1520,2455.73,1520ZM2398,919.13c14.06,152.14-1.88,293.53-44.92,398.14-17.66,42.94-12.41,90.88,13.7,125.1,37.25,48.81,97.65,58.11,161.55,24.86a128,128,0,0,0,40.09-33.17h0c105.09-128.85,136.29-369.3,69.66-536.25C2592,800,2523.47,778,2478.74,788.87,2427.28,801.38,2395.61,852.48,2398,919.13Zm183.21,525.36h0Z" transform="translate(-696.89 -567.56)"/><path class="cls-3" d="M2485.49,787.27a16.5,16.5,0,0,1-16.5-16.49c-.1-126.18-68.71-170.87-71.63-172.71A16.5,16.5,0,0,1,2414.7,570c3.56,2.18,87.18,55.12,87.29,200.77a16.49,16.49,0,0,1-16.49,16.51Z" transform="translate(-696.89 -567.56)"/><g class="cls-4"><path class="cls-3" d="M2557.13,887a11.35,11.35,0,1,1-13-9.38A11.36,11.36,0,0,1,2557.13,887Z" transform="translate(-696.89 -567.56)"/></g><g class="cls-4"><path class="cls-3" d="M2628.33,1117.87a9,9,0,1,1-10.3-7.42A9,9,0,0,1,2628.33,1117.87Z" transform="translate(-696.89 -567.56)"/></g><g class="cls-4"><path class="cls-3" d="M2501.14,1250.46a9,9,0,1,1-10.3-7.42A9,9,0,0,1,2501.14,1250.46Z" transform="translate(-696.89 -567.56)"/></g><g class="cls-4"><circle class="cls-3" cx="2500.63" cy="1002.08" r="8.98" transform="translate(-882.54 637.54) rotate(-26.16)"/></g><g class="cls-4"><circle class="cls-3" cx="2513.36" cy="1136.53" r="11.34" transform="translate(212.87 2813.34) rotate(-78.79)"/></g><g class="cls-4"><circle class="cls-3" cx="2584.24" cy="1019.16" r="13.92" transform="translate(-187.27 2299.01) rotate(-63.21)"/></g><g class="cls-4"><circle class="cls-3" cx="2496.78" cy="1366.48" r="13.92" transform="translate(259.98 3192.64) rotate(-85.94)"/></g><g class="cls-4"><circle class="cls-3" cx="2566.35" cy="1216.69" r="13.92" transform="translate(647.62 3213.03) rotate(-89.89)"/></g><path class="cls-9" d="M2109.87,1832.52c-25.5,27.18-33.94,66.06-23.11,101.77,35.93,118.72,7.21,123.26-45.41-1.51a92.58,92.58,0,0,0-66.77-55c-74.22-15.1-149.32-50-193.15-95a59.93,59.93,0,0,1-13.94-66.09l0,0,0,0a65.43,65.43,0,0,1,24.63-31.09c26.43-17.66,68.07-16.51,112.53,29-8.62-38.07-1.71-67.78,13.16-87.43a66.7,66.7,0,0,1,42.58-26.23c36.12-6.08,77.91,18.16,92,80.15,36.65-111,148.21-73,121.53,41.28C2163.73,1760.68,2138.3,1802.18,2109.87,1832.52Z" transform="translate(-696.89 -567.56)"/><g class="cls-4"><path class="cls-10" d="M2092.11,1953c27.32,100.08-1.08,97.59-50.76-20.25a92.58,92.58,0,0,0-66.77-55c-74.22-15.1-149.32-50-193.15-95a59.91,59.91,0,0,1-13.92-66.11,64.92,64.92,0,0,1,17.66-25.67,60.71,60.71,0,0,0,4.52,32.24,62.08,62.08,0,0,0,13.17,18.65c43.84,45,118.94,79.91,193.16,95a92.6,92.6,0,0,1,66.76,55C2073.75,1917.8,2083.64,1938.15,2092.11,1953Z" transform="translate(-696.89 -567.56)"/><path class="cls-3" d="M2097.17,2027.34c-16.8,0-46-64.83-58.13-93.59a89.85,89.85,0,0,0-65-53.54c-77.86-15.84-152.37-52.52-194.46-95.73-6.33-6.42-10.81-12.78-13.67-19.4a64.71,64.71,0,0,1-.78-49.35,67.47,67.47,0,0,1,18.34-26.65l5-4.39-.86,6.59a58.42,58.42,0,0,0,4.33,30.91c2.62,6.07,6.76,11.92,12.66,17.9,41.44,42.54,115,78.68,191.87,94.32a94.89,94.89,0,0,1,68.58,56.51c10.51,24.82,20.33,45.31,29.19,60.87l.24.58c8.68,31.78,16.52,70.53,4.64,74.64A6.11,6.11,0,0,1,2097.17,2027.34Zm-315-329.94a63.12,63.12,0,0,0-12.32,20.12,59.76,59.76,0,0,0,.7,45.57c2.61,6.06,6.75,11.91,12.66,17.9,41.43,42.53,114.94,78.67,191.87,94.31a94.88,94.88,0,0,1,68.57,56.51c29.25,69.38,48.62,92.16,53.87,90.48,2.77-1,6.75-15.1-7.74-68.3-8.92-15.7-18.77-36.26-29.3-61.13a89.9,89.9,0,0,0-65-53.55c-77.85-15.84-152.36-52.51-194.45-95.72-6.33-6.42-10.81-12.77-13.67-19.4A63.16,63.16,0,0,1,1782.17,1697.4Z" transform="translate(-696.89 -567.56)"/></g><g class="cls-5"><path class="cls-1" d="M2109.87,1832.52c-25.5,27.18-33.94,66.06-23.11,101.77,27.34,90.34,17.25,114.54-12.29,66,2.8-11.31-1.53-40-15.18-85.07-10.78-35.65-2.39-74.54,23.11-101.78,28.43-30.33,53.92-71.84,64.09-110.13,9-38.57,2.29-68.45-12-86.83,30.39,8.54,53.19,47.14,39.47,105.85C2163.73,1760.68,2138.3,1802.18,2109.87,1832.52Z" transform="translate(-696.89 -567.56)"/></g><g class="cls-5"><path class="cls-1" d="M2052.38,1681.05c-3.52,24.93-15.42,32.43-26.84,23.63a25.21,25.21,0,0,1-9.16-16.37c-7.89-53.63-42.57-79.81-98.57-61.18l42.58-26.23C1996.51,1594.82,2038.3,1619.06,2052.38,1681.05Z" transform="translate(-696.89 -567.56)"/></g><g class="cls-5"><path class="cls-1" d="M1911.19,1730c2.43,13.14-12.26,23.65-23.89,17.07a11.55,11.55,0,0,1-4.26-3.86c-22.58-36.61-90.39-57.21-115.59-26.54,0,0,12-15.34,24.67-31.14,26.43-17.66,68.07-16.51,112.53,29C1908.44,1720.56,1910.39,1725.69,1911.19,1730Z" transform="translate(-696.89 -567.56)"/></g><path class="cls-3" d="M2096.84,2038.67c-12.37,0-22.77-13.35-31.51-27-10.77-16.84-23.44-42.27-36.63-73.56a78.85,78.85,0,0,0-56.85-46.91c-79.86-16.2-156.6-54.09-200.27-98.87-7.33-7.52-12.55-15-15.95-22.75-14.65-33.51-2.36-74.5,28.58-95.33,24-16.17,61.76-20.62,103,7.47.22-30.24,10.44-56.24,29.72-74.09a79.51,79.51,0,0,1,78.32-17.76c25.18,7.8,45.66,26.95,58.9,54.26,23.13-37.81,56.75-48.6,84-40.94,35.13,9.89,65.5,52.36,49.18,122.26-10.33,39-35.5,82.38-67.42,116.44-21.8,23.26-29.45,57.13-20,88.4h0c26,85.87,16.87,102.28,3.15,107.24A18.06,18.06,0,0,1,2096.84,2038.67Zm-269.45-350a49,49,0,0,0-27.82,8.43c-20.09,13.53-28.15,40-18.74,61.51,2.05,4.69,5.46,9.45,10.44,14.55,40,41,111.31,75.95,186,91.12a106.34,106.34,0,0,1,76.72,63.17c14.78,35.07,25.86,55.78,33.48,67.89-1.82-11.9-5.76-30-13.94-57h0c-12.31-40.65-2.25-84.78,26.24-115.17s51.82-70.39,60.8-104.28c11.58-49.59-6.27-82.49-29.94-89.14-21.35-6-49.79,8.88-65.24,55.67a13.75,13.75,0,0,1-26.47-1.27c-8-35.44-27-60.2-51.9-67.94a52.28,52.28,0,0,0-51.5,11.69c-19.17,17.73-25.55,48.23-17.51,83.68a13.75,13.75,0,0,1-23.25,12.65C1872,1700.84,1848.37,1688.66,1827.39,1688.66Z" transform="translate(-696.89 -567.56)"/><path class="cls-3" d="M1971.67,1694.23l128.84,292a16.53,16.53,0,0,1-30.24,13.34c-.22-.52-.43-1.06-.6-1.59Z" transform="translate(-696.89 -567.56)"/><path class="cls-3" d="M2107.3,1701.39a509.59,509.59,0,0,0-27,70.63c-7,24.06-11.65,48.69-12.85,73.27a254.11,254.11,0,0,0,6.71,72.5,291,291,0,0,0,25.92,67.46,16.53,16.53,0,0,1-29.24,15.41,15.45,15.45,0,0,1-.74-1.61l0-.07c-9.73-24.6-16.91-50.44-20.26-76.76a275.17,275.17,0,0,1,1.23-78.67,330.63,330.63,0,0,1,21.48-74.26A512.46,512.46,0,0,1,2107.3,1701.39Z" transform="translate(-696.89 -567.56)"/><path class="cls-3" d="M1859.69,1766.35c52.68,16.8,103,43.84,145.18,81.7s76.17,86,95.92,141a16.52,16.52,0,0,1-31.1,11.17c-.18-.52-.34-1-.47-1.56l0-.06c-12.7-50.83-39.4-99-75.92-138.78C1956.78,1819.8,1910.48,1788.3,1859.69,1766.35Z" transform="translate(-696.89 -567.56)"/><path class="cls-9" d="M2471.58,2633.67c-22.13,30-25.95,69.59-11,103.78,49.62,113.68,21.64,121.56-45.28,3.83a92.59,92.59,0,0,0-72.77-46.8c-75.48-6.27-154.16-32.13-203-71.67a59.9,59.9,0,0,1-21.6-64l0,0,0,0a65.48,65.48,0,0,1,20.81-33.77c24.17-20.64,65.65-24.39,115.16,15.6-13-36.8-9.66-67.11,2.79-88.37a66.73,66.73,0,0,1,39.21-31.05c35.16-10.28,79.5,8.88,100.77,68.79,23.35-114.57,138.61-89.88,125.53,26.72C2516.63,2556,2496.25,2600.2,2471.58,2633.67Z" transform="translate(-696.89 -567.56)"/><g class="cls-4"><path class="cls-3" d="M2468.1,2755.43c38.89,96.18,10.39,97-52.79-14.15a92.59,92.59,0,0,0-72.77-46.8c-75.48-6.27-154.16-32.13-203-71.67a59.88,59.88,0,0,1-21.58-64,65,65,0,0,1,14.52-27.56,60.68,60.68,0,0,0,8.28,31.48,62.14,62.14,0,0,0,15.27,17c48.81,39.53,127.5,65.39,203,71.66a92.63,92.63,0,0,1,72.77,46.8C2445.73,2722.6,2457.94,2741.65,2468.1,2755.43Z" transform="translate(-696.89 -567.56)"/></g><g class="cls-5"><path class="cls-1" d="M2471.58,2633.67c-22.13,30-25.95,69.59-11,103.78,37.76,86.5,30.59,111.72-4.46,67,1.45-11.55-6.21-39.5-25.06-82.69-14.9-34.15-11.14-73.74,11-103.79,24.67-33.46,45.11-77.68,50.71-116.9,4.44-39.37-5.77-68.24-22.17-84.81,31.19,4.91,58.37,40.57,51.63,100.48C2516.63,2556,2496.25,2600.2,2471.58,2633.67Z" transform="translate(-696.89 -567.56)"/></g><g class="cls-5"><path class="cls-1" d="M2396.7,2490c-.57,25.17-11.51,34-23.88,26.62a25.21,25.21,0,0,1-11-15.19c-14.13-52.32-51.65-74.25-105.08-49.17l39.21-31.05C2331.09,2410.93,2375.43,2430.09,2396.7,2490Z" transform="translate(-696.89 -567.56)"/></g><g class="cls-5"><path class="cls-1" d="M2262.24,2555.21c4,12.76-9.4,24.92-21.72,19.75a11.49,11.49,0,0,1-4.69-3.33c-26.72-33.71-96.49-46.2-117.9-12.78,0,0,10.16-16.64,20.84-33.82,24.17-20.64,65.65-24.39,115.16,15.6C2258.39,2546.14,2260.94,2551,2262.24,2555.21Z" transform="translate(-696.89 -567.56)"/></g><path class="cls-3" d="M2480.83,2840c-11.57,0-22.73-11.4-32.43-23.22-12.68-15.45-28.25-39.22-45-68.75a78.91,78.91,0,0,0-62-39.9c-81.22-6.71-161.88-35.32-210.5-74.66-8.16-6.6-14.22-13.38-18.51-20.71-18.48-31.56-11.09-73.71,17.19-98,22-18.89,58.93-27.74,103.14-4.67-5.58-51.48,20.52-88.48,55-100.72s78.24.11,106.34,43.79c18.51-40.28,50.62-55,78.63-50.54,36.05,5.69,71.2,44.3,63.19,115.64-5.67,39.94-25.57,86-53.27,123.55-18.91,25.65-22.54,60.19-9.46,90.13h0c35.89,82.22,28.77,99.59,15.72,106.13A17.81,17.81,0,0,1,2480.83,2840Zm-300-316.44c-12.61,0-24,4-33.33,12-18.36,15.8-23.26,43-11.38,63.29,2.58,4.42,6.53,8.74,12.07,13.22,44.56,36,119.45,62.35,195.47,68.63a106.36,106.36,0,0,1,83.61,53.73c18.8,33.09,32.23,52.35,41.22,63.48-3.21-11.6-9.24-29.12-20.55-55-17-38.91-12.18-83.92,12.54-117.45s43.19-76,48.13-110.7c5.67-50.61-15.92-81.17-40.2-85-21.89-3.46-48.41,14.66-58.26,62.94a13.75,13.75,0,0,1-26.43,1.85c-19.5-55-58.65-69.27-86.8-59.29s-49.55,45.76-30.05,100.74a13.75,13.75,0,0,1-21.61,15.28C2222.59,2533,2200.23,2523.6,2180.85,2523.6Z" transform="translate(-696.89 -567.56)"/><path class="cls-3" d="M2318.09,2512.57l162.25,274.86a16.52,16.52,0,0,1-28.46,16.79c-.28-.49-.55-1-.79-1.51Z" transform="translate(-696.89 -567.56)"/><path class="cls-3" d="M2453.63,2503.75a508.36,508.36,0,0,0-18.51,73.31c-4.14,24.72-5.85,49.72-4.15,74.27a253.55,253.55,0,0,0,15.18,71.21,291,291,0,0,0,33.66,63.95,16.52,16.52,0,1,1-27.23,18.73,14.86,14.86,0,0,1-.92-1.51l0-.06c-12.55-23.29-22.71-48.11-29.13-73.85a274.53,274.53,0,0,1-8-78.27,330,330,0,0,1,12.6-76.27A513,513,0,0,1,2453.63,2503.75Z" transform="translate(-696.89 -567.56)"/><path class="cls-3" d="M2215.36,2597.34c54.28,10.5,107.42,31.44,153.77,64.08s85.74,76.42,111.82,128.73a16.52,16.52,0,1,1-29.57,14.74c-.24-.49-.46-1-.65-1.49l0-.06c-18.58-49-50.75-93.64-91.7-128.89C2318.06,2639,2268.38,2613.18,2215.36,2597.34Z" transform="translate(-696.89 -567.56)"/><path class="cls-11" d="M2234.73,2854.77h-.16q-41.3,8.86-84.33,17c-47.15,8.94-93.32,16.66-137.94,23.33-291.72,43.32-517.42,37.45-528-18.6-8.28-43.72,116.61-106.9,308.41-164l0-.06c91.56-27.2,198.38-53.09,313.26-74.78,355.58-67.24,653.75-69.34,666-4.72C2783.24,2692.41,2548.84,2787.55,2234.73,2854.77Z" transform="translate(-696.89 -567.56)"/><path class="cls-3" d="M1680.29,2926.22c-118.46,0-192.32-16.72-198.48-49.25-8.35-44.14,107.33-106.41,309.49-166.63h0l.71-.26c94.45-28.06,202.86-53.94,313.51-74.84,362.41-68.52,656.22-69.72,668.89-2.72,11.54,60.86-215.21,155.37-539.17,224.7l-.57.05c-26.94,5.83-55.33,11.56-84,17-45,8.53-91.46,16.39-138,23.34C1883.28,2916.8,1769.22,2926.21,1680.29,2926.22Zm113.81-211.54-.71.26c-196.88,58.58-314.39,120.31-306.67,161.11,10.1,53.3,231,60.28,525.22,16.59,46.5-6.95,92.88-14.79,137.83-23.31,28.61-5.41,57-11.13,84.27-17l.4,0c315.89-67.63,545.9-161.69,535.07-218.84-5.58-29.49-79.07-45.93-201.76-45.05-125.65.89-289.47,19.28-461.29,51.77C1996.23,2661,1888.24,2686.74,1794.1,2714.68Z" transform="translate(-696.89 -567.56)"/><path class="cls-3" d="M1679.12,2942.88c-58.21,0-105.2-3.9-139.82-11.6-45.14-10-69.33-26.79-74-51.19s11.79-48.82,50.15-74.66c31-20.89,76.35-42.86,134.8-65.31,118.49-45.52,279.06-88.61,452.12-121.34s338.27-51.24,465.18-52.13c62.61-.46,112.85,3.44,149.33,11.56,45.14,10,69.33,26.79,74,51.19s-11.78,48.85-50.14,74.69c-31,20.88-76.35,42.85-134.81,65.3-118.46,45.5-279,88.58-452.11,121.31s-338.27,51.24-465.18,52.14C1685.44,2942.87,1682.26,2942.88,1679.12,2942.88ZM2577,2605.11l-9.08,0c-124.67.89-287.43,19.17-458.3,51.48s-329.06,74.72-445.46,119.44c-136.41,52.4-162.53,88.39-160.93,96.87s39,32.53,185.18,31.41c124.68-.88,287.44-19.16,458.3-51.47h0c170.89-32.32,329.1-74.72,445.47-119.42,136.41-52.39,162.53-88.41,160.92-96.89C2751.48,2628.26,2715.54,2605.11,2577,2605.11Z" transform="translate(-696.89 -567.56)"/><g class="cls-4"><path class="cls-10" d="M2768,2660.59c-33.89,59.3-251.36,141.91-532.92,202.21h-.17c-86.48,28.56-200.13,53-261.42,45.91-38.75-4.52-113.3-45.51-155.33-121.39a33.2,33.2,0,0,1,20-48.19c81.22-22.59,172.52-43.92,269.61-62.26C2440.75,2613.9,2723.33,2608.07,2768,2660.59Z" transform="translate(-696.89 -567.56)"/><path class="cls-3" d="M1997.7,2912.48a215.8,215.8,0,0,1-24.47-1.27c-39.64-4.64-114.63-45.76-157.22-122.67a35.72,35.72,0,0,1-1.74-31.3,35.34,35.34,0,0,1,23.28-20.51c84.39-23.47,175.17-44.43,269.82-62.31C2439.18,2611.66,2724,2605,2769.94,2659l1.13,1.34-.87,1.52c-34.1,59.66-253.92,143.31-534.57,203.41l-.27.06C2160.28,2890.06,2062.84,2912.48,1997.7,2912.48Zm582-284.68c-122.4,0-291.41,17.48-471.41,51.54-94.52,17.85-185.16,38.78-269.41,62.2a30.41,30.41,0,0,0-20,17.63,30.78,30.78,0,0,0,1.5,26.95c41.73,75.36,114.85,115.61,153.43,120.12,62.21,7.23,175.61-17.82,260.35-45.81l.78-.13c276.57-59.25,493.66-141,530-199.41C2743.83,2638.68,2676.27,2627.8,2579.71,2627.8Z" transform="translate(-696.89 -567.56)"/></g><path class="cls-12" d="M2226.82,2237.41c128.42,170.59,47,522.79-87.08,685.39-13.93,16.89-41.34,6.68-40.72-15.22L2117,2273.39a61.41,61.41,0,0,1,53.72-59.19h0C2192.18,2211.5,2213.79,2220.1,2226.82,2237.41Z" transform="translate(-696.89 -567.56)"/><g class="cls-5"><path class="cls-1" d="M2139.72,2922.8c-8,9.68-20.43,10.44-29.46,5.18,111.71-137.24,186.07-405.76,131.48-588.86-26.74,3.76-40.08-33.89-18.48-48.36a265.42,265.42,0,0,0-27.66-46,59.28,59.28,0,0,0-17.63-15.56,61.27,61.27,0,0,0-28.85-8.11,61.89,61.89,0,0,1,60.08.72,59.06,59.06,0,0,1,17.64,15.56C2355.22,2408,2273.84,2760.2,2139.72,2922.8Z" transform="translate(-696.89 -567.56)"/></g><path class="cls-3" d="M2122.21,2947.76a40.34,40.34,0,0,1-14.13-2.59,39,39,0,0,1-25.56-38.06l18-634.19a77.49,77.49,0,0,1,68.15-75.09c27.62-3.49,55,7.88,71.37,29.66,61.63,81.86,82.24,209.09,58,358.25-21.66,133.4-76.07,263.32-145.56,347.55A39.05,39.05,0,0,1,2122.21,2947.76Zm56.31-717.54a45,45,0,0,0-45.06,43.64l-17.95,634.19a6.08,6.08,0,0,0,4.17,6.22,6.17,6.17,0,0,0,7.33-2c64.95-78.73,118-205.88,138.44-331.85,22.76-140.2,4.36-258.5-51.82-333.12h0A43.8,43.8,0,0,0,2178.52,2230.22Z" transform="translate(-696.89 -567.56)"/><g class="cls-4"><path class="cls-3" d="M2140.3,2903.84,2144,2773.9a39.19,39.19,0,0,1,33.23-37.82,50.15,50.15,0,0,0,21-8.14,51,51,0,0,0,21.7-33,3,3,0,0,0-5-2.66l-.32.33c-.18.18-.37.36-.55.55-25.2,24.71-67.89,5-66.89-30.32l.92-32.31a9.61,9.61,0,0,1,14.23-8.14l.42.22a50.26,50.26,0,0,0,58.59-8.51,51,51,0,0,0,15.75-36.22,3,3,0,0,0-5.39-1.77l-.27.38c-12.29,17.81-34.65,26.48-55.39,20.29l-.67-.21c-15.69-4.9-25.74-20.26-25.28-36.68l1-35.4a10.19,10.19,0,0,1,15.17-8.53l.43.22a51,51,0,0,0,74.2-44.57,3,3,0,0,0-5.39-1.8l-.27.38c-12.52,18-35.27,26.5-56.12,19.85l-.68-.22c-15.78-5.24-25.77-20.83-25.3-37.44l.72-25.43c.32-11.4,11.95-18.47,22.51-14.18l.55.22a51,51,0,0,0,69-53.88,3,3,0,0,0-5.58-1l-.19.38c-10.24,20.24-32.71,31.84-54.92,27.2l-.77-.17c-17.32-3.86-28.9-20.32-28.4-38.06l2.2-77.74a61.47,61.47,0,0,1,35.62-54,61.49,61.49,0,0,0-76.87,57.72l-18,634.21c-.6,21.87,26.79,32.07,40.7,15.2,1.48-1.81,3-3.62,4.39-5.53A22.09,22.09,0,0,1,2140.3,2903.84Z" transform="translate(-696.89 -567.56)"/></g><path class="cls-13" d="M1847.86,2296.87c-42.81-38.39-91.43-73.77-145.41-106.37-61.08-39.1-94.64,11-25.31,52,40.9,27.34,95.9,55.64,156.81,82.65C1854.25,2321.33,1857.41,2311.38,1847.86,2296.87Z" transform="translate(-696.89 -567.56)"/><g class="cls-5"><path class="cls-1" d="M1844.39,2322a41.17,41.17,0,0,0-3-5.25q-64.26-57.6-145.38-106.34c-25.74-16.49-46.58-17.14-56.94-9.27-5.1-23.43,23.2-36.34,63.36-10.63,54,32.63,102.6,68,145.38,106.39C1855.42,2308.39,1855,2317,1844.39,2322Z" transform="translate(-696.89 -567.56)"/></g><path class="cls-3" d="M1834,2338.87a13.77,13.77,0,0,1-5.58-1.18c-65.92-29.24-119.27-57.35-158.57-83.58-29.09-17.27-45.5-38.79-45-59.06a31.42,31.42,0,0,1,17.06-27.71c17.32-9.23,42.13-5,68,11.58,54.87,33.14,104.49,69.44,147.17,107.71a13.7,13.7,0,0,1,2.3,2.68c7.51,11.4,9.36,21.8,5.49,30.91-4,9.45-13.56,15.65-28.35,18.41A13.36,13.36,0,0,1,1834,2338.87Zm-171.61-148.75a16.61,16.61,0,0,0-7.6,1.49,4.08,4.08,0,0,0-2.5,4c-.13,5.92,6.44,19.95,31.88,35,.22.12.44.26.65.4,37.2,24.86,87.85,51.65,150.58,79.65a19.5,19.5,0,0,0,3.61-1.36,20.12,20.12,0,0,0-1.71-3.49c-41.09-36.66-88.82-71.5-141.92-103.57C1680.65,2192.87,1669.53,2190.12,1662.35,2190.12Z" transform="translate(-696.89 -567.56)"/><path class="cls-13" d="M1874.48,2276.05c-5.14-57.28-16.58-116.31-33.83-177-18-70.25-76.73-56.49-54,20.75,11.29,47.89,32.22,106.1,58.36,167.39C1862.48,2298.3,1871.57,2293.18,1874.48,2276.05Z" transform="translate(-696.89 -567.56)"/><g class="cls-5"><path class="cls-1" d="M1874.46,2276c-2.46,14.56-9.4,20.42-22.1,15.07a41.53,41.53,0,0,0,.92-4.28c-5.13-57.26-16.57-116.29-33.82-176.91-7.14-27.8-20.69-42.46-33-45.23,11.94-21.93,42.15-12.49,54.15,34.44C1857.89,2159.74,1869.33,2218.77,1874.46,2276Z" transform="translate(-696.89 -567.56)"/></g><path class="cls-3" d="M1860.78,2306.83c-7,0-14.72-2.67-23.1-8a13.76,13.76,0,0,1-5.28-6.21c-28.29-66.35-48.14-123.29-59-169.27-9.5-32.47-6.84-59.39,7.31-73.92a31.46,31.46,0,0,1,31.38-8.63c19,5,34.24,25.05,41.88,54.86,17.55,61.69,29.09,122.08,34.2,179.15a13.91,13.91,0,0,1-.13,3.53c-2.29,13.47-8,22.33-17.07,26.35A24.79,24.79,0,0,1,1860.78,2306.83Zm-4.87-29.19a19.91,19.91,0,0,0,3.57,1.47,19.75,19.75,0,0,0,1.13-3.73c-5-54.81-16.21-112.84-33.18-172.53-6.44-25.06-17.12-34.06-22.43-35.47a4.11,4.11,0,0,0-4.59,1.25c-4.13,4.24-8.89,19-.53,47.33.08.24.14.49.2.73C1810.34,2160.24,1829.11,2214.37,1855.91,2277.64Z" transform="translate(-696.89 -567.56)"/><path class="cls-13" d="M1852,2265.31c-28.86-49.74-64.16-98.41-105.42-146.1-46-56.06-93.41-18.78-40.14,41.6,30.45,38.64,74,82.56,123.6,127.07C1850.47,2290.55,1856.55,2282.07,1852,2265.31Z" transform="translate(-696.89 -567.56)"/><g class="cls-5"><path class="cls-1" d="M1839.29,2288.31a32,32,0,0,0-1.25-6.66c-28.86-49.75-64.17-98.41-105.42-146.08-18.47-22.52-37.15-30-49.45-26.91,3.21-22.9,33.6-25.78,63.37,10.55,41.25,47.68,76.56,96.33,105.42,146.08C1855.78,2279.19,1852.28,2287.4,1839.29,2288.31Z" transform="translate(-696.89 -567.56)"/></g><path class="cls-3" d="M1836.66,2302.1a65,65,0,0,1-8.44-.59,13.69,13.69,0,0,1-7.42-3.4c-53.66-48.17-95.7-91.4-125-128.49-22.32-25.42-31.28-50.95-24.59-70.09a31.41,31.41,0,0,1,24.79-21.08c19.35-3.45,41.61,8.25,61.14,32,41.95,48.48,77.92,98.34,106.68,147.92a14.35,14.35,0,0,1,1.37,3.26c3.61,13.17,2.16,23.63-4.34,31.09C1855.47,2299,1847.35,2302.1,1836.66,2302.1Zm-.88-27.5a19.4,19.4,0,0,0,3.86-.18,19.8,19.8,0,0,0-.55-3.86c-27.74-47.56-62.37-95.44-103-142.35-16.42-20-29.91-23.68-35.31-22.68a4.08,4.08,0,0,0-3.63,3.07c-2,5.59,0,21,19.51,43.12.17.19.33.38.49.59C1744.89,2187.45,1784.78,2228.58,1835.78,2274.6Z" transform="translate(-696.89 -567.56)"/><path class="cls-14" d="M1796.64,2389.31c-12.06-77,42.28-138.22,114.4-133,35.06,2.53,66.86,21.44,88.11,49.45,99.21,130.81,222.75,308.71,230.29,454.65,1,19.81-18.25,34.8-36.94,28.13-129.62-46.24-269.3-205.5-373.09-346.38C1807.88,2426.51,1799.64,2408.52,1796.64,2389.31Z" transform="translate(-696.89 -567.56)"/><g class="cls-4"><path class="cls-3" d="M2229.33,2764c-1.23,18-19.29,30.77-36.83,24.48-129.61-46.21-269.27-205.46-373.1-346.34-11.5-15.69-19.73-33.65-22.78-52.88-9.55-61,22.66-112.19,72.38-128.07-25.72,24.32-39.36,62.08-32.7,104.66,3,19.23,11.22,37.19,22.77,52.82C1962.09,2558.55,2100.45,2716.57,2229.33,2764Z" transform="translate(-696.89 -567.56)"/></g><g class="cls-5"><path class="cls-1" d="M2229.42,2760.41a28.21,28.21,0,0,1-23.07,29.3,27.13,27.13,0,0,0,.86-8.46c-7.52-145.89-131.05-323.84-230.3-454.61-21.22-28-53-46.92-88.11-49.48-26.38-1.92-50.38,5.09-69.6,18.54,21-26.57,54-42.13,91.82-39.38,35.07,2.51,66.88,21.43,88.1,49.42C2098.38,2436.57,2221.91,2614.46,2229.42,2760.41Z" transform="translate(-696.89 -567.56)"/></g><path class="cls-3" d="M2201.63,2806.62a43.27,43.27,0,0,1-14.67-2.54c-109.28-39-237.41-157.46-380.83-352.13-13.61-18.48-22.53-39.25-25.79-60.08h0c-6.7-42.76,4.89-84.06,31.8-113.3,25.2-27.39,61.68-41.52,100.09-38.72,38.75,2.8,75.22,23.19,100.06,55.94,104.75,138.11,226,315.64,233.63,463.77a44.8,44.8,0,0,1-18,38.33A44,44,0,0,1,2201.63,2806.62ZM1902.44,2272.5c-25.79,0-49,9.94-66,28.41-20.06,21.8-28.62,53.09-23.49,85.85h0c2.44,15.61,9.28,31.39,19.76,45.62,137.48,186.61,263.82,304.4,365.35,340.62a10.63,10.63,0,0,0,10.14-1.58,11.79,11.79,0,0,0,4.77-10.15c-7.19-139.15-125.07-311.2-227-445.54-19.1-25.19-46.86-40.85-76.15-43C1907.36,2272.59,1904.88,2272.5,1902.44,2272.5Z" transform="translate(-696.89 -567.56)"/><path class="cls-3" d="M1799.92,2395.62a169.77,169.77,0,0,0,22.84-1.6,207.39,207.39,0,0,0,23.25-4.42,163.43,163.43,0,0,0,22.71-7.47,132.67,132.67,0,0,0,21.49-11.39,135.68,135.68,0,0,1-18,17.29,173.08,173.08,0,0,1-21,14.27,222.73,222.73,0,0,1-22.88,11.56,193.51,193.51,0,0,1-24.8,9Z" transform="translate(-696.89 -567.56)"/><path class="cls-3" d="M2046.81,2354.5a133.66,133.66,0,0,1-6.2,14.92c-2.23,4.68-4.68,9.2-7.21,13.64a190,190,0,0,1-17.37,25A153.56,153.56,0,0,1,1995,2429.4c-7.46,6.54-16,11.7-24.39,16.42,7.13-6.62,13.92-13.37,19.41-21.15a143.14,143.14,0,0,0,14.51-24.08,171.59,171.59,0,0,0,10-25.83c1.26-4.41,2.44-8.83,3.36-13.26a105.5,105.5,0,0,0,2-12.77Z" transform="translate(-696.89 -567.56)"/><path class="cls-3" d="M1901.68,2535a207.81,207.81,0,0,0,25.15-.57,236,236,0,0,0,25.56-3.38,179.63,179.63,0,0,0,25-6.86,113.8,113.8,0,0,0,23.4-12,117.48,117.48,0,0,1-20.18,18.07,190,190,0,0,1-23.83,13.82,253,253,0,0,1-25.64,10.52,232.12,232.12,0,0,1-27.23,7.81Z" transform="translate(-696.89 -567.56)"/><path class="cls-3" d="M2153.93,2517.66a185.25,185.25,0,0,1-11.33,19.53,182.38,182.38,0,0,1-13.09,17.75,121.8,121.8,0,0,1-15.44,15.61,68.34,68.34,0,0,1-18.39,11.13,65.09,65.09,0,0,0,13.23-15.67,112.12,112.12,0,0,0,8.81-18.15,167.83,167.83,0,0,0,6.09-19.16,165.38,165.38,0,0,0,3.86-19.21Z" transform="translate(-696.89 -567.56)"/><path class="cls-3" d="M2030.76,2668.91a108.68,108.68,0,0,0,10.88,1.63c3.83.39,7.72.67,11.63.84a194.85,194.85,0,0,0,23.65-.43,181.26,181.26,0,0,0,47.28-9.95,178.86,178.86,0,0,1-21.17,13.06,183.32,183.32,0,0,1-23.09,10.3,209.38,209.38,0,0,1-24.51,7.53q-6.29,1.52-12.72,2.69a133.13,133.13,0,0,1-13.54,1.78Z" transform="translate(-696.89 -567.56)"/><path class="cls-13" d="M1450.37,901.37C1407.55,863,1358.93,827.6,1305,795c-61.08-39.1-94.64,11-25.32,52,40.91,27.34,95.91,55.64,156.82,82.65C1456.76,925.83,1459.92,915.88,1450.37,901.37Z" transform="translate(-696.89 -567.56)"/><g class="cls-5"><path class="cls-1" d="M1446.9,926.48a40.58,40.58,0,0,0-3-5.26q-64.26-57.59-145.38-106.33c-25.74-16.49-46.58-17.15-57-9.28-5.09-23.43,23.2-36.34,63.37-10.62,54,32.62,102.6,68,145.38,106.39C1457.93,912.9,1457.51,921.47,1446.9,926.48Z" transform="translate(-696.89 -567.56)"/></g><path class="cls-3" d="M1436.46,943.37a13.76,13.76,0,0,1-5.57-1.18C1365,913,1311.61,884.84,1272.32,858.61c-29.09-17.27-45.5-38.78-45.06-59.05a31.45,31.45,0,0,1,17.06-27.72c17.33-9.23,42.13-5,68.06,11.58,54.88,33.15,104.5,69.45,147.17,107.72a13.36,13.36,0,0,1,2.3,2.67c7.51,11.41,9.36,21.81,5.49,30.91-4,9.46-13.56,15.65-28.35,18.42A14.34,14.34,0,0,1,1436.46,943.37Zm-171.6-148.74a16.63,16.63,0,0,0-7.6,1.48,4.1,4.1,0,0,0-2.5,4c-.13,5.92,6.43,19.94,31.88,35,.22.13.43.27.64.41,37.21,24.86,87.85,51.65,150.59,79.66a19.5,19.5,0,0,0,3.61-1.36,19.3,19.3,0,0,0-1.72-3.5c-41.07-36.65-88.8-71.49-141.91-103.57C1283.16,797.37,1272,794.63,1264.86,794.63Z" transform="translate(-696.89 -567.56)"/><path class="cls-13" d="M1477,880.55c-5.14-57.27-16.58-116.3-33.83-176.95-18-70.26-76.73-56.49-54,20.75,11.28,47.89,32.22,106.09,58.35,167.38C1465,902.8,1474.08,897.68,1477,880.55Z" transform="translate(-696.89 -567.56)"/><g class="cls-5"><path class="cls-1" d="M1477,880.53c-2.46,14.55-9.4,20.42-22.11,15.06a40.88,40.88,0,0,0,.93-4.28C1450.66,834.05,1439.22,775,1422,714.4c-7.14-27.8-20.68-42.46-33-45.22,11.94-21.94,42.15-12.49,54.15,34.44C1460.4,764.24,1471.83,823.27,1477,880.53Z" transform="translate(-696.89 -567.56)"/></g><path class="cls-3" d="M1463.28,911.33c-7,0-14.71-2.66-23.1-8a13.75,13.75,0,0,1-5.27-6.21c-28.29-66.34-48.14-123.28-59-169.26-9.49-32.47-6.83-59.4,7.32-73.92a31.44,31.44,0,0,1,31.38-8.64c19,5.06,34.23,25.06,41.88,54.87,17.55,61.68,29.08,122.07,34.2,179.14a13.45,13.45,0,0,1-.14,3.53c-2.28,13.47-8,22.33-17.06,26.35A24.64,24.64,0,0,1,1463.28,911.33Zm-4.86-29.19a19.61,19.61,0,0,0,3.57,1.47,20.28,20.28,0,0,0,1.13-3.73c-5-54.81-16.21-112.84-33.19-172.52-6.43-25.07-17.11-34.06-22.42-35.48a4.11,4.11,0,0,0-4.59,1.26c-4.13,4.24-8.89,19-.53,47.32.07.24.14.49.2.74C1412.84,764.75,1431.62,818.88,1458.42,882.14Z" transform="translate(-696.89 -567.56)"/><path class="cls-13" d="M1454.45,869.81c-28.85-49.74-64.16-98.41-105.41-146.09-46-56.07-93.42-18.79-40.14,41.6,30.45,38.64,74,82.55,123.6,127.06C1453,895.05,1459.06,886.57,1454.45,869.81Z" transform="translate(-696.89 -567.56)"/><g class="cls-5"><path class="cls-1" d="M1441.8,892.82a32,32,0,0,0-1.25-6.67c-28.86-49.75-64.17-98.4-105.43-146.08-18.47-22.52-37.15-30-49.44-26.91,3.2-22.9,33.59-25.78,63.36,10.56,41.26,47.67,76.57,96.33,105.43,146.07C1458.29,883.69,1454.79,891.91,1441.8,892.82Z" transform="translate(-696.89 -567.56)"/></g><path class="cls-3" d="M1439.17,906.6a65,65,0,0,1-8.45-.58,13.8,13.8,0,0,1-7.41-3.4c-53.66-48.19-95.71-91.41-125-128.5C1276,748.71,1267,723.18,1273.73,704A31.44,31.44,0,0,1,1298.52,683c19.35-3.41,41.62,8.25,61.15,32,41.95,48.48,77.92,98.35,106.68,147.93a13.64,13.64,0,0,1,1.36,3.25c3.62,13.17,2.16,23.63-4.33,31.1C1458,903.47,1449.85,906.6,1439.17,906.6Zm-.88-27.5a19.4,19.4,0,0,0,3.86-.18,19.8,19.8,0,0,0-.55-3.86c-27.74-47.55-62.37-95.43-103-142.35-16.42-20-29.88-23.64-35.31-22.68a4.09,4.09,0,0,0-3.63,3.08c-2,5.58,0,20.95,19.51,43.11.17.19.33.39.49.59C1347.39,792,1387.28,833.08,1438.29,879.1Z" transform="translate(-696.89 -567.56)"/><path class="cls-15" d="M1399.14,993.82c-12.05-77,42.29-138.23,114.4-133,35.07,2.54,66.87,21.45,88.11,49.46,99.22,130.81,222.75,308.71,230.3,454.64,1,19.82-18.25,34.8-36.94,28.13-129.62-46.23-269.3-205.5-373.09-346.37C1410.39,1031,1402.15,1013,1399.14,993.82Z" transform="translate(-696.89 -567.56)"/><g class="cls-4"><path class="cls-3" d="M1831.84,1368.54c-1.23,18-19.29,30.77-36.83,24.49-129.61-46.22-269.28-205.46-373.11-346.35-11.5-15.68-19.73-33.65-22.77-52.87-9.55-61,22.66-112.2,72.38-128.08-25.72,24.32-39.36,62.08-32.71,104.67,3,19.22,11.23,37.19,22.78,52.82C1564.6,1163.05,1703,1321.07,1831.84,1368.54Z" transform="translate(-696.89 -567.56)"/></g><g class="cls-5"><path class="cls-1" d="M1821.93,1369.92a28.22,28.22,0,0,1-23.07,29.3,27.16,27.16,0,0,0,.86-8.47c-7.52-145.89-131-323.83-230.31-454.61-21.21-28-53-46.91-88.1-49.47-26.38-1.93-50.38,5.09-69.61,18.53,21-26.57,54-42.13,91.83-39.37,35.06,2.5,66.88,21.42,88.1,49.42C1690.89,1046.08,1814.41,1224,1821.93,1369.92Z" transform="translate(-696.89 -567.56)"/></g><path class="cls-3" d="M1804.14,1411.12a43.27,43.27,0,0,1-14.67-2.54c-109.28-39-237.41-157.45-380.83-352.12-13.62-18.48-22.54-39.26-25.8-60.09-6.69-42.76,4.9-84,31.81-113.3,25.19-27.39,61.67-41.49,100.08-38.72,38.76,2.81,75.23,23.2,100.07,55.95,104.75,138.11,226,315.63,233.63,463.76a44.82,44.82,0,0,1-18,38.33A44,44,0,0,1,1804.14,1411.12ZM1505,877c-25.79,0-49,9.94-66,28.41-20,21.8-28.61,53.09-23.49,85.86h0c2.45,15.61,9.28,31.38,19.77,45.61C1572.7,1223.5,1699,1341.29,1800.55,1377.5a10.65,10.65,0,0,0,10.14-1.58,11.75,11.75,0,0,0,4.78-10.15c-7.19-139.14-125.07-311.19-227-445.53-19.11-25.19-46.86-40.85-76.16-43Q1508.61,877,1505,877Z" transform="translate(-696.89 -567.56)"/><path class="cls-3" d="M1402.43,1000.12a171.47,171.47,0,0,0,22.84-1.59,207.86,207.86,0,0,0,23.25-4.43,162.11,162.11,0,0,0,22.71-7.47,131,131,0,0,0,21.48-11.39,135.69,135.69,0,0,1-18,17.3,173.08,173.08,0,0,1-21,14.27,224.77,224.77,0,0,1-22.88,11.56,195.59,195.59,0,0,1-24.8,9Z" transform="translate(-696.89 -567.56)"/><path class="cls-3" d="M1649.32,959a132.54,132.54,0,0,1-6.21,14.92c-2.22,4.67-4.67,9.19-7.2,13.63a189.37,189.37,0,0,1-17.37,25,154.19,154.19,0,0,1-21.08,21.35c-7.47,6.53-16,11.69-24.39,16.41,7.13-6.62,13.91-13.36,19.4-21.15a143.06,143.06,0,0,0,14.52-24.08,171.48,171.48,0,0,0,10-25.82c1.26-4.42,2.44-8.83,3.36-13.27a105.67,105.67,0,0,0,2-12.76Z" transform="translate(-696.89 -567.56)"/><path class="cls-3" d="M1504.18,1139.45a210,210,0,0,0,25.16-.56,236,236,0,0,0,25.56-3.39,178.63,178.63,0,0,0,25-6.86,114.31,114.31,0,0,0,23.4-12,117.23,117.23,0,0,1-20.19,18.08,187.93,187.93,0,0,1-23.82,13.81,253.07,253.07,0,0,1-25.64,10.53,232.68,232.68,0,0,1-27.23,7.8Z" transform="translate(-696.89 -567.56)"/><path class="cls-3" d="M1756.44,1122.16a187,187,0,0,1-11.33,19.53,180.85,180.85,0,0,1-13.1,17.75,121.23,121.23,0,0,1-15.44,15.62,68.25,68.25,0,0,1-18.39,11.12,64.26,64.26,0,0,0,13.23-15.67,111.62,111.62,0,0,0,8.81-18.14,182.7,182.7,0,0,0,10-38.37Z" transform="translate(-696.89 -567.56)"/><path class="cls-3" d="M1633.27,1273.41a103.18,103.18,0,0,0,10.88,1.63c3.83.39,7.72.67,11.63.84a190.87,190.87,0,0,0,23.65-.43,181.07,181.07,0,0,0,47.27-10,178.8,178.8,0,0,1-21.16,13.07,186.9,186.9,0,0,1-23.09,10.3,210.83,210.83,0,0,1-24.52,7.52q-6.27,1.52-12.72,2.69a135.12,135.12,0,0,1-13.54,1.79Z" transform="translate(-696.89 -567.56)"/><path class="cls-9" d="M2623.72,2714.64c-36.7,6.48-66.77,32.54-79.5,67.62-42.4,116.56-68.11,103-35.44-28.44a92.6,92.6,0,0,0-20.46-84.06c-50.36-56.57-89.54-129.54-97.66-191.83a59.94,59.94,0,0,1,28.46-61.26h0a65.44,65.44,0,0,1,38.35-10.13c31.75,1.71,64.38,27.59,72.69,90.69,15.92-35.65,39.26-55.28,62.93-62.1a66.71,66.71,0,0,1,49.81,4.53c32.55,16.78,51.48,61.23,25.59,119.29,95.89-66.9,162.38,30.43,72.53,105.89C2709.9,2689.42,2664.66,2707.4,2623.72,2714.64Z" transform="translate(-696.89 -567.56)"/><g class="cls-4"><path class="cls-3" d="M2537.27,2800.46c-38.12,96.49-59.36,77.47-28.49-46.64a92.6,92.6,0,0,0-20.46-84.06c-50.36-56.57-89.54-129.54-97.66-191.83a59.91,59.91,0,0,1,28.49-61.26,65,65,0,0,1,29.52-10,60.82,60.82,0,0,0-15.7,28.52,61.86,61.86,0,0,0-.64,22.82c8.11,62.3,47.3,135.26,97.66,191.84a92.6,92.6,0,0,1,20.46,84.06C2543.7,2761.26,2539.41,2783.47,2537.27,2800.46Z" transform="translate(-696.89 -567.56)"/></g><g class="cls-5"><path class="cls-1" d="M2623.72,2714.64c-36.7,6.48-66.77,32.54-79.5,67.62-32.26,88.7-54.84,102-49.4,45.45,9-7.37,22.73-32.89,38.85-77.18,12.74-35,42.76-61.1,79.5-67.62,40.94-7.24,86.22-25.19,117.31-49.74,30.35-25.46,42.87-53.42,42.41-76.73,19.2,25.06,14.32,69.63-31.86,108.39C2709.9,2689.42,2664.66,2707.4,2623.72,2714.64Z" transform="translate(-696.89 -567.56)"/></g><g class="cls-5"><path class="cls-1" d="M2668.5,2558.94c-17.76,17.85-31.78,16.71-35.65,2.83a25.21,25.21,0,0,1,2.48-18.6c25.83-47.65,13.76-89.4-42.23-108.05l49.81,4.53C2675.46,2456.43,2694.39,2500.88,2668.5,2558.94Z" transform="translate(-696.89 -567.56)"/></g><g class="cls-5"><path class="cls-1" d="M2526.14,2513.5c-5.94,12-24,11.59-29.36-.66a11.6,11.6,0,0,1-1.09-5.64c3.87-42.84-38.07-100-76.62-90.53,0,0,18.84-5.05,38.41-10.14,31.75,1.71,64.38,27.59,72.69,90.69C2529.6,2504.29,2528.09,2509.56,2526.14,2513.5Z" transform="translate(-696.89 -567.56)"/></g><path class="cls-3" d="M2501.06,2875.58a19.35,19.35,0,0,1-5.69-.91c-15.4-4.7-16.07-24.53-14.69-43.31,1.47-19.93,6.57-47.88,14.77-80.84a78.84,78.84,0,0,0-17.39-71.62c-54.21-60.85-92.93-137.17-101-199.18-1.36-10.42-1.08-19.5.86-27.77,8.37-35.61,42.79-61,80-59.18,28.94,1.46,61.81,20.53,78,67.72,31.44-41.15,75.86-50,109.27-35s56.61,54,46.85,105c41.19-16.41,74.57-4.92,91.81,17.59,22.2,29,21.05,81.17-33.92,127.33-31.65,25-77.79,44.67-123.76,52.8-31.38,5.55-57.82,28.07-69,58.77C2530.49,2860.16,2514.06,2875.58,2501.06,2875.58ZM2454,2420.18c-23.2,0-44.15,16-49.34,38.06-1.17,5-1.29,10.84-.36,17.91,7.43,56.83,43.57,127.51,94.3,184.46a106.32,106.32,0,0,1,23.55,96.55c-9.19,36.93-12.73,60.14-13.9,74.4,5.68-10.62,13.38-27.47,23-54h0c14.52-39.91,49-69.2,90-76.45s83.66-25.28,111.17-47c39-32.76,44.41-69.78,29.46-89.29-13.48-17.6-45.17-22.75-85.59,5.45a13.75,13.75,0,0,1-20.43-16.88c23.77-53.27,5.25-90.62-22-102.79s-67.44-1-91.21,52.27a13.75,13.75,0,0,1-26.19-3.82c-6.26-47.74-28.7-77.18-60-78.76C2455.68,2420.2,2454.83,2420.18,2454,2420.18Z" transform="translate(-696.89 -567.56)"/><path class="cls-3" d="M2596,2521.11l-71.9,311a16.52,16.52,0,0,1-32.2-7.44c.13-.56.29-1.12.47-1.65Z" transform="translate(-696.89 -567.56)"/><path class="cls-3" d="M2700.27,2608.14a509.4,509.4,0,0,0-63.94,40.36c-20,15.05-38.52,32-54.21,50.94A254.07,254.07,0,0,0,2544,2761.5a290.53,290.53,0,0,0-19.69,69.53,16.53,16.53,0,1,1-32.64-5.19,14,14,0,0,1,.37-1.73l0-.07c7-25.53,16.7-50.52,29.79-73.59a274.44,274.44,0,0,1,48.14-62.23,330,330,0,0,1,61.7-46.57A513.21,513.21,0,0,1,2700.27,2608.14Z" transform="translate(-696.89 -567.56)"/><path class="cls-3" d="M2463.14,2511.72c32.08,45,56.14,96.82,67.23,152.42s9.44,114.45-7.72,170.33a16.52,16.52,0,1,1-31.59-9.7c.16-.52.35-1,.55-1.53l0-.06c20.3-48.29,27.78-102.82,22.41-156.59S2490.63,2559.74,2463.14,2511.72Z" transform="translate(-696.89 -567.56)"/><path class="cls-2" d="M2224.12,2288.94c161.41-9.18,329.75-214.32,402.52-444.79,28.43-100-100.76-145.8-136.37-51.46-61.79,149-133.46,283.81-225.29,389.85-16.63,19.21-35.85,35.84-55.24,52.27C2186.13,2254.81,2194.44,2289.71,2224.12,2288.94Z" transform="translate(-696.89 -567.56)"/><g class="cls-4"><path class="cls-3" d="M2605.17,1756.57c-29.21-3.15-60.26,11.83-75.09,51.14-61.81,149-133.46,283.84-225.32,389.86-16.59,19.19-35.81,35.86-55.23,52.28-13.92,11.8-16.74,28.78-10.59,40.51-3,.33-6,.6-9,.76-29.7.79-38-34.14-14.39-54.1,19.42-16.42,38.65-33.1,55.24-52.29,91.86-106,163.51-240.88,225.31-389.86C2517.06,1739.25,2570.57,1732.34,2605.17,1756.57Z" transform="translate(-696.89 -567.56)"/></g><g class="cls-5"><path class="cls-1" d="M2231,2291.52c-12.35.33-21-5.5-25.15-13.9,138-14.36,279.68-169.23,361-358.33-23.26-13.6-5.21-60.64,21.44-54.46,3.73-10.35,7.18-20.75,10.48-31.2,11.64-40.82-3.09-72.66-26.94-89.53,41,4.18,78.34,44.14,61.67,102.63C2560.72,2077.24,2392.37,2282.36,2231,2291.52Z" transform="translate(-696.89 -567.56)"/></g><path class="cls-3" d="M2223.2,2305.45c-18.83,0-34.35-10.22-40.72-26.92-7.29-19.1-.62-41.73,16.6-56.31,19.23-16.29,37.78-32.41,53.43-50.49,82-94.69,152.69-217.08,222.42-385.12,21.8-57.37,72.52-70,110.49-57.51,41.38,13.66,74.28,59.12,57.09,119.56-37.07,117.45-97.93,228-171.49,311.76-79.24,90.21-164.29,140.35-246,145l-.51,0Zm.92-16.51h0Zm334-531.25c-20.29,0-41.39,11.71-52.38,40.83l-.19.49c-71.16,171.53-143.63,296.83-228.06,394.33-17.19,19.85-36.8,36.89-57.05,54.06-7.56,6.4-9,14.34-7.1,19.37,1.47,3.85,4.88,5.74,10.16,5.68,145.59-8.52,312.11-194.71,387.44-433.26,11.9-41.89-10.21-70.29-35.84-78.75A54.26,54.26,0,0,0,2558.09,1757.69Z" transform="translate(-696.89 -567.56)"/><g class="cls-5"><path class="cls-1" d="M2547.05,1939.53c-2,5.21-6.83,8.2-10.85,6.68s-5.7-7-3.73-12.18,6.82-8.21,10.85-6.69S2549,1934.32,2547.05,1939.53Z" transform="translate(-696.89 -567.56)"/></g><path class="cls-13" d="M2537.86,1767.21c26,18.32,79.59,26.91,91.55,5.39a4.33,4.33,0,0,0,.32-3.18l-5.65-21.05a107.21,107.21,0,0,1,4-67.9c13.38-33.13,38.07-82.78,77.21-121.13,14.84-14.53-1.81-38.7-20.55-29.75-38.9,18.56-76.69,62.66-105.59,149.75a71.19,71.19,0,0,1-20.41,31.06l-23,20.22A23.33,23.33,0,0,0,2537.86,1767.21Z" transform="translate(-696.89 -567.56)"/><g class="cls-5"><path class="cls-1" d="M2705.35,1559.58c-39.12,38.38-63.85,88-77.22,121.12a106.68,106.68,0,0,0-6.93,52.47,105,105,0,0,0,2.93,15.44l3.7,13.87c-4.94,7.18-15.56,17.4-16.74,17.72-.55.21-7.27-1-15.74-2.53-15.31-2.9-36.52-7.14-38.47-7.58,29.53-3.32,44.28-15.92,41.26-39.69a.05.05,0,0,1,0-.07,106.11,106.11,0,0,1,6.81-53.87c13.39-33.15,38.07-82.81,77.22-121.12,7.85-7.73,6.88-18.09,1.44-24.85a9.75,9.75,0,0,1,1.24-.65C2703.55,1520.86,2720.17,1545.06,2705.35,1559.58Z" transform="translate(-696.89 -567.56)"/></g><path class="cls-3" d="M2597.92,1801.79c-28.7,0-63.21-12.45-79.39-29.47h0a34.54,34.54,0,0,1-9.51-25.55,35.8,35.8,0,0,1,12.07-25.17l27.68-24.38a50,50,0,0,0,14.37-21.93c26.11-79.22,62.23-132,107.36-156.9,15.84-8.74,34.57-4.77,45.56,9.67s9.89,33.71-2.82,46.72c-35.1,35.93-57.63,81.37-70.34,113.16a86.25,86.25,0,0,0-3.26,54.76l2,7.59a41.05,41.05,0,0,1-5.8,33.89,39.73,39.73,0,0,1-28.54,17.12A87.56,87.56,0,0,1,2597.92,1801.79Zm89.94-255a2.92,2.92,0,0,0-1.42.5c-37.6,20.74-68.54,67.28-92,138.33a83.16,83.16,0,0,1-23.91,36.38l-27.69,24.37a2.67,2.67,0,0,0-.9,1.87,1.7,1.7,0,0,0,.45,1.33h0c11.1,11.68,41.5,21,61.39,18.92a6.65,6.65,0,0,0,4.83-3,8.07,8.07,0,0,0,1.15-6.66l-2-7.6a120.6,120.6,0,0,1,4.49-75.56c13.83-34.58,38.47-84.16,77.38-124,.66-.67,1.66-1.7.17-3.66A2.56,2.56,0,0,0,2687.86,1546.79Z" transform="translate(-696.89 -567.56)"/><path class="cls-12" d="M2161.86,1237.62c203,66.26,338,401.56,321.25,611.67-1.75,21.84-30.06,29.17-42.1,10.87L2092.44,1330a61.41,61.41,0,0,1,10.13-79.29h0C2118.63,1236.23,2141.27,1230.9,2161.86,1237.62Z" transform="translate(-696.89 -567.56)"/><g class="cls-5"><path class="cls-1" d="M2483.09,1849.31a22.78,22.78,0,0,1-21.18,21.12c13-176.48-79.92-439.17-229.55-558-19.76,18.4-52.26-4.81-42.84-29a266.59,266.59,0,0,0-49-21.83,59.22,59.22,0,0,0-23.36-2.65,61.29,61.29,0,0,0-28.29,9.87,61.89,61.89,0,0,1,49.66-33.82,59,59,0,0,1,23.36,2.65C2364.84,1303.9,2499.88,1639.2,2483.09,1849.31Z" transform="translate(-696.89 -567.56)"/></g><path class="cls-3" d="M2459.91,1887.05a38.89,38.89,0,0,1-32.69-17.83l-348.57-530.11a77.52,77.52,0,0,1,12.85-100.6c20.66-18.68,49.58-25,75.48-16.57,97.42,31.8,187.2,124.28,252.79,260.41,58.66,121.74,88.49,259.41,79.79,368.26a39.06,39.06,0,0,1-29.59,35.16A40.17,40.17,0,0,1,2459.91,1887.05Zm-316.2-635.8a45.09,45.09,0,0,0-37.49,69.73l348.58,530.11a6.07,6.07,0,0,0,7,2.71,6.17,6.17,0,0,0,4.88-5.82c8.14-101.73-21.22-236.34-76.62-351.3-61.65-128-144.51-214.39-233.3-243.37A41.76,41.76,0,0,0,2143.71,1251.25Z" transform="translate(-696.89 -567.56)"/><g class="cls-4"><path class="cls-3" d="M2472.7,1833.44l-71.42-108.62a39.18,39.18,0,0,1,5.57-50,50.15,50.15,0,0,0,12.55-18.7,51,51,0,0,0-1.14-39.5,3,3,0,0,0-5.64.69c0,.16,0,.31-.07.46s-.09.51-.14.76c-6.5,34.69-52.8,43-72.19,13.47l-17.76-27a9.62,9.62,0,0,1,7-14.84l.46-.05a50.28,50.28,0,0,0,43.15-40.54,51,51,0,0,0-7.83-38.72,3,3,0,0,0-5.44,1.64v.47c.12,21.64-13.23,41.56-33.78,48.36l-.67.21c-15.66,5-32.7-1.85-41.73-15.58l-19.46-29.59a10.19,10.19,0,0,1,7.55-15.68l.47-.06a51,51,0,0,0,35.29-79,3,3,0,0,0-5.44,1.61v.46c0,21.89-13.74,41.92-34.64,48.42l-.68.21c-15.93,4.74-33-2.31-42.18-16.2l-14-21.26c-6.26-9.52-.79-22,10.33-24.51l.57-.13a51,51,0,0,0,25.74-83.72,3,3,0,0,0-5.16,2.36l.06.42c3.2,22.46-8.58,44.84-29.44,53.75l-.72.31c-16.41,6.75-35.33-.1-45.08-14.93l-42.74-65a61.5,61.5,0,0,1-1.73-64.67,60.64,60.64,0,0,0-19.82,12.06,61.36,61.36,0,0,0-10.12,79.28L2441,1860.17c12,18.27,40.32,10.94,42.06-10.86.18-2.33.36-4.67.43-7A22.18,22.18,0,0,1,2472.7,1833.44Z" transform="translate(-696.89 -567.56)"/></g><path class="cls-16" d="M1951,2635.57c36.23-90.7,156.15-62.27,137.86,43.86,190.37-81.45,226.93,211.36,67.94,282.23C1883.93,2838.62,1900.15,2735.88,1951,2635.57Z" transform="translate(-696.89 -567.56)"/><path class="cls-16" d="M2187.69,2859.13a89.37,89.37,0,0,1,13,24.53,72,72,0,0,1,1.9,16.49c-.06,42.91-42.33,71-107.15,75.68-240.49,19.46-532.91-44.57-798.29-169.31a282.47,282.47,0,0,1-55-33.52c-63.28-49.77-80.33-106.71-60.09-143.26,20.65-37.48,80.33-53.65,169.39-19.12,0,0,92.35,38.33,173.3,90.63-149.36-121.59-31.6-238.67,89.12-81.63-112.74-241,41.12-313,153.9-72,1.58-166.06,126.5-124.24,168.17,42.24,8.57,34,22,66.79,40.94,96.34C2047.19,2796,2146.38,2803,2187.69,2859.13Z" transform="translate(-696.89 -567.56)"/><g class="cls-5"><path class="cls-1" d="M1524.83,2701.25c11.33,37.92-28.18,20.45-28.18,20.45-53.64-34.61-112.24-63.12-145.76-78.41,1.82,31.91-71.5,5.39-48.88-19.72-48.46-15.19-87-14.39-113.54-3.18,25-30.59,81.83-41.29,163.06-9.77,0,0,34.1,14.13,79.09,37l-.47-2Z" transform="translate(-696.89 -567.56)"/></g><g class="cls-5"><path class="cls-1" d="M1609.89,2620.4c12.76,14.31-5,41.61-24.12,19.67-47.5-61.83-94.6-81.14-125.08-74.45,14.1-25.52,51.66-31.64,96.39-1.64.27,1,.58,2,.85,3.05l0,0C1559.59,2568.75,1609.55,2620,1609.89,2620.4Z" transform="translate(-696.89 -567.56)"/></g><g class="cls-5"><path class="cls-1" d="M2166.54,2956.9c50.94-49.11,65.37-128.14,46.86-187.28-29.21,9.09-62.51-37.76-42.69-61.85-23.09-16-53.82-21.84-91.86-11.51a18.89,18.89,0,0,1-23.91-17.24c-2.7-56.07-49.34-82-89.85-68.41,46-58.84,140-26,123.73,68.84C2275.19,2599.64,2314.16,2878.63,2166.54,2956.9Z" transform="translate(-696.89 -567.56)"/></g><g class="cls-5"><path class="cls-1" d="M1747.59,2508.42c-.88,2.81-1.71,5.79-2.44,8.9l29.94,36c3.24,38-29.19,35.91-35.46,14.71-52.12-111.47-113.06-156-152.32-147.78C1615.22,2376.06,1684.79,2398,1747.59,2508.42Z" transform="translate(-696.89 -567.56)"/></g><g class="cls-5"><path class="cls-1" d="M2200.73,2883.66c7.84,34.33-8.71,61.15-41.75,77,13.45-15,18.71-34.16,13.56-56.52-28.25-80.54-144.5-73.41-223.76-197.47-18.92-29.56-32.42-62.3-40.94-96.35a342,342,0,0,0-22.5-63.71c-30.49,16.61-60.8-42.6-33.75-52.24-21.54-24-44.76-35-64.46-31,37-54.88,117.11-.43,148.89,126.48,8.57,34,22,66.79,40.94,96.34C2056.27,2810.22,2172.51,2803.08,2200.73,2883.66Z" transform="translate(-696.89 -567.56)"/></g><path class="cls-3" d="M2007.73,2995.8c-221.65,0-478-61.73-717.55-174.33a301.38,301.38,0,0,1-58.13-35.5c-75.37-59.28-86.39-125.67-63.87-165.17,22.34-39.17,83.8-66.44,189.31-25.54,2.75,1.14,43,18,93.45,44.29-11.7-23.27-15.6-46-10.71-66.27,5.54-22.89,22.57-39.48,45.58-44.36,25.9-5.51,55.52,3.45,85,24.63-27-91.89-8.31-148.44,28.5-165.66,39.73-18.57,101.16,8.36,158.07,104.42,13.12-54.07,44.11-64.56,59.26-66.36,53.61-6.39,110.58,60.88,135.38,159.88,8.41,33.56,21.48,64.34,38.83,91.49,39.46,61.73,88.47,89,131.72,113.16,40.23,22.43,78.24,43.62,93.69,87.71a17.91,17.91,0,0,1,.51,1.77c5.54,24.21,1.22,46.83-12.52,65.39-19.75,26.71-58,43.38-107.63,47Q2053.3,2995.81,2007.73,2995.8ZM1262.89,2608c-35.28,0-56.92,13.16-66,29.15-15.51,27.21-4.33,75.76,55.6,122.89a268.63,268.63,0,0,0,51.77,31.58c267.31,125.63,555.23,186.77,789.91,167.79,39.46-2.84,69.89-15.11,83.62-33.67,7.78-10.52,10.16-23.14,7.08-37.51-11.54-31.7-41-48.14-78.3-68.91-44.34-24.72-99.52-55.48-143.46-124.22-19.27-30.16-33.75-64.22-43-101.25-22.08-88.12-68.78-138.89-99.48-135.11-21.85,2.58-35.73,36.7-36.22,89a16.5,16.5,0,0,1-31.45,6.84c-56.51-120.8-115.61-148-139.57-136.82s-40.94,74,15.58,194.83a16.5,16.5,0,0,1-28,17c-44.6-58-86.17-73.12-108.21-68.45-10.73,2.28-17.76,9.13-20.35,19.83-5.23,21.66,8.11,62.79,62.93,107.41a16.5,16.5,0,0,1-19.37,26.66c-78.69-50.81-169.76-88.84-170.67-89.22C1312.26,2613.12,1284.92,2608,1262.89,2608Z" transform="translate(-696.89 -567.56)"/><path class="cls-3" d="M2156.77,2978.16a16.51,16.51,0,0,1-6.73-31.58c81.66-36.39,108.7-141.4,78.32-211-22.91-52.45-71.4-67.38-133.05-41a16.5,16.5,0,0,1-22.75-18c8.09-46.94-14.66-70.83-36.59-77-23.66-6.69-54.37,3.75-69.69,42.09a16.5,16.5,0,1,1-30.64-12.25c22.81-57.09,72.65-71.94,109.3-61.59,32.27,9.11,61.21,39.13,62.26,87.45,79.33-23,129.82,17.68,151.4,67.11,36.57,83.73,3.66,210.29-95.12,254.32A16.5,16.5,0,0,1,2156.77,2978.16Z" transform="translate(-696.89 -567.56)"/><g class="cls-5"><ellipse class="cls-1" cx="1863.01" cy="2577.9" rx="13.52" ry="10.77" transform="translate(-1855.59 1017.53) rotate(-35.96)"/></g><g class="cls-4"><path class="cls-3" d="M2187.71,2859.26c.58,1.55,6.76,18.4,14.92,40.89-.06,42.91-42.33,71-107.15,75.68a1143.45,1143.45,0,0,1-148.38,1.91c-116.25-5.71-239.83-27.5-363.54-63.26a1935.07,1935.07,0,0,1-286.37-108,282.47,282.47,0,0,1-55-33.52c-63.28-49.77-80.33-106.71-60.09-143.26,28.1,74,113.56,128.15,228.78,169.7,115.75,41.74,246.11,15.15,334.43-70.53q3.62-3.49,7.23-7.16c101.8-102.93,157,42.16,185.68,144.92a74.52,74.52,0,0,0,61.24,53.81l.49.07C2115.49,2946.1,2179.26,2926.75,2187.71,2859.26Z" transform="translate(-696.89 -567.56)"/></g><circle class="cls-2" cx="2458.47" cy="2780.64" r="220.01" transform="translate(-1943.04 1985.27) rotate(-45)"/><g class="cls-4"><path class="cls-3" d="M2612,2938.07a218.7,218.7,0,0,1-143.26,62.34c-121.36,5.7-224.38-88.08-230.08-209.45A220,220,0,0,1,2342,2594a219.13,219.13,0,0,0-66.18,167.74c5.7,121.36,108.72,215.14,230.08,209.45A218.73,218.73,0,0,0,2612,2938.07Z" transform="translate(-696.89 -567.56)"/></g><g class="cls-5"><path class="cls-1" d="M2678.22,2770.33c4.81,102.41-61.21,191.74-154.83,220.58a220.18,220.18,0,0,0,117.4-262.59c-24.18-2.34-33.45-29.87-21.28-48.62a220.32,220.32,0,0,0-254.16-98.41,218.12,218.12,0,0,1,82.79-20.4C2569.5,2555.19,2672.52,2649,2678.22,2770.33Z" transform="translate(-696.89 -567.56)"/></g><path class="cls-3" d="M2458.2,3017.15a236.51,236.51,0,1,1,236.51-247.59c6.12,130.26-94.89,241.21-225.15,247.33C2465.76,3017.07,2462,3017.15,2458.2,3017.15Zm.49-440c-3.25,0-6.5.08-9.77.23A203.5,203.5,0,0,0,2468,2983.92c112.09-5.26,199-100.73,193.74-212.82a203.52,203.52,0,0,0-203.06-194Z" transform="translate(-696.89 -567.56)"/><path class="cls-6" d="M2453.43,2806.36l-20.11,122.7a10.22,10.22,0,0,1-12.45,8.26,161.24,161.24,0,0,1-121.61-181.11,10.17,10.17,0,0,1,12.28-8.34l120.15,26.79a26.9,26.9,0,0,1,17.46,12.29c.16.27.32.55.5.82A26.64,26.64,0,0,1,2453.43,2806.36Z" transform="translate(-696.89 -567.56)"/><path class="cls-6" d="M2434.59,2762l-98.2-76.93a5.82,5.82,0,0,1-.94-8.27,160.88,160.88,0,0,1,235.85-11,5.82,5.82,0,0,1-.16,8.32l-90.63,85.87C2470.57,2768.57,2452.63,2776.69,2434.59,2762Z" transform="translate(-696.89 -567.56)"/><path class="cls-6" d="M2619.38,2773.09a161.14,161.14,0,0,1-104.09,158.31,11.5,11.5,0,0,1-15-7.6l-34.73-119.6a25,25,0,0,1,1.29-17.46l.11-.26a25.09,25.09,0,0,1,15.09-13.41l118.35-38.34a11.47,11.47,0,0,1,14.69,8.09A161.44,161.44,0,0,1,2619.38,2773.09Z" transform="translate(-696.89 -567.56)"/><path class="cls-11" d="M1484.27,2876.51c12.23,64.62,310.4,62.51,666-4.73s634-174.13,621.73-238.8C2924.17,3437.94,1636.47,3681.42,1484.27,2876.51Z" transform="translate(-696.89 -567.56)"/><path class="cls-3" d="M2097,3374.73c-117.93,0-230.66-27.63-327.11-81.32-153-85.18-252.63-229.17-288-416.38,0,0,0,0,0-.06h0l4.91-.92,0,.07c5.69,29.45,79.33,45.7,201.74,45,125.65-.88,289.47-19.27,461.3-51.76s331.07-75.2,448.35-120.24c114.5-44,177-86.13,171.38-115.65l4.91-.92c35.41,187.26-4.74,357.7-116.11,492.89-98.74,119.85-246.33,203.49-415.58,235.49A784.38,784.38,0,0,1,2097,3374.73Zm-607.19-483.34c84.24,400.81,447,522.24,752,464.6s598.35-303.17,530.48-707.06c-16.81,39.66-112,81.66-172.35,104.83-117.56,45.14-277.09,87.93-449.23,120.48C1816.53,2937.44,1540.67,2943.38,1489.79,2891.39Z" transform="translate(-696.89 -567.56)"/><path class="cls-1" d="M1484.27,2876.51c8.13,43.06,143.28,56.48,337.79,40.74,97.31-7.87,209.58-23.05,328.18-45.47,261-49.36,480.45-120.06,573.84-179.78,33.84-21.64,51.12-41.83,47.89-59C2924.17,3437.94,1636.47,3681.42,1484.27,2876.51Z" transform="translate(-696.89 -567.56)"/><g class="cls-4"><path class="cls-3" d="M2472.05,3271.46h0c-310.57,97.81-688.88,1.85-817.21-348.06-55.25-1.17-99.34-6.34-128.92-15.55C1643.54,3352.72,2131.57,3441.31,2472.05,3271.46Z" transform="translate(-696.89 -567.56)"/></g><g class="cls-5"><path class="cls-1" d="M2098.12,3372c308-28.76,603.43-241.35,614.52-586.4.65-20.17-20.69-33.73-38.79-24.8-184.61,91-598.63,189.64-855.58,157.91l3.79-1.45c97.31-7.87,209.58-23.05,328.18-45.47,248.55-47,459.35-113.35,559.54-171.13,3.44-2,6.7-3.89,9.81-5.86,1.55-.89,3-1.84,4.49-2.79,33.84-21.64,51.12-41.83,47.89-59C2859.34,3094.92,2472.43,3372,2098.12,3372Z" transform="translate(-696.89 -567.56)"/></g><path class="cls-3" d="M2097,3391.48c-120.77,0-236.33-28.35-335.28-83.44-157.5-87.67-260-235.62-296.35-427.88l0-.07h0l37.83-7.16c1.61,8.48,39,32.53,185.18,31.41,124.68-.88,287.44-19.16,458.3-51.47s329.1-74.72,445.47-119.42c136.27-52.34,162.47-88.33,160.92-96.87v0l37.83-7.16s0,.07,0,.11c36.33,192.26-5.05,367.42-119.66,506.55-101.23,122.88-252.31,208.57-425.4,241.3A801.3,801.3,0,0,1,2097,3391.48Zm-582.14-467c95.83,360.61,436.11,469.44,723.83,415s564.78-280,522.32-650.69a224.56,224.56,0,0,1-20.27,15.25c-31,20.88-76.35,42.85-134.81,65.3-118.46,45.5-279,88.58-452.11,121.31s-338.27,51.24-465.18,52.14c-62.62.44-112.86-3.44-149.34-11.56A225.61,225.61,0,0,1,1514.86,2924.49Z" transform="translate(-696.89 -567.56)"/><g class="cls-17"><path class="cls-1" d="M2517.53,3048.12c21.19,31.51-4.7,86-57.82,121.75s-113.37,39.15-134.56,7.64,22.34-59.77,75.47-95.5S2496.34,3016.62,2517.53,3048.12Z" transform="translate(-696.89 -567.56)"/></g></svg>