<svg id="_1" data-name="1" xmlns="http://www.w3.org/2000/svg" viewBox="0 0 55.78 55.78"><defs><style>.cls-1{fill:#fff;}</style></defs><rect class="cls-1" width="55.78" height="55.78"/><path d="M130.57,240.36h0a.73.73,0,0,1-.8-.65h0a.74.74,0,0,1,.66-.8h0a.73.73,0,0,1,.8.65h0A.73.73,0,0,1,130.57,240.36Z" transform="translate(-114.32 -202.87)"/><path d="M149.11,221.92h0a.73.73,0,0,1-.8-.66h0a.72.72,0,0,1,.65-.79h0a.72.72,0,0,1,.8.65h0A.73.73,0,0,1,149.11,221.92Z" transform="translate(-114.32 -202.87)"/><path d="M134.66,219.77h0a.72.72,0,0,1-.8-.65h0a.74.74,0,0,1,.66-.8h0a.73.73,0,0,1,.8.66h0A.73.73,0,0,1,134.66,219.77Z" transform="translate(-114.32 -202.87)"/><path d="M148.42,243.11h0a.73.73,0,0,1-.8-.66h0a.72.72,0,0,1,.65-.79h0a.72.72,0,0,1,.8.65h0A.73.73,0,0,1,148.42,243.11Z" transform="translate(-114.32 -202.87)"/><path d="M136.15,243.77h0a.74.74,0,0,1-.8-.66h0a.73.73,0,0,1,.65-.8h0a.74.74,0,0,1,.8.66h0A.73.73,0,0,1,136.15,243.77Z" transform="translate(-114.32 -202.87)"/><path d="M138.86,227.67h-8.53a.36.36,0,0,1-.31-.19.36.36,0,0,1,0-.37,5.47,5.47,0,0,1,.45-.51,5.73,5.73,0,0,1,8.11,0l.48.48a.34.34,0,0,1-.24.59ZM131.1,227H138a5.07,5.07,0,0,0-6.93,0Z" transform="translate(-114.32 -202.87)"/><path d="M154,227.67h-8.53a.37.37,0,0,1-.32-.21.36.36,0,0,1,.08-.38l.48-.48a5.73,5.73,0,0,1,8.11,0,5.47,5.47,0,0,1,.45.51.32.32,0,0,1,0,.36A.33.33,0,0,1,154,227.67Zm-7.7-.69h6.93a5.07,5.07,0,0,0-6.93,0Z" transform="translate(-114.32 -202.87)"/><path d="M142.17,239.55h0a16.39,16.39,0,0,1-11.67-4.84,5.72,5.72,0,0,1-1.64-4.68.34.34,0,0,1,.34-.3h25.94a.34.34,0,0,1,.34.3,5.72,5.72,0,0,1-1.64,4.68l0,0A16.37,16.37,0,0,1,142.17,239.55Zm-12.65-9.14a5.05,5.05,0,0,0,1.47,3.82,15.79,15.79,0,0,0,22.34,0l0,0a5,5,0,0,0,1.47-3.82Z" transform="translate(-114.32 -202.87)"/><path d="M155.25,230.41H129.17a1.72,1.72,0,0,1,0-3.43h26.08a1.72,1.72,0,1,1,0,3.43Zm-26.08-2.74a1,1,0,1,0,0,2.06h26.08a1,1,0,0,0,0-2.06Z" transform="translate(-114.32 -202.87)"/><path d="M135.35,233.51a.82.82,0,0,1-.78-.56l-.92-2.77a.34.34,0,0,1,0-.31.34.34,0,0,1,.28-.14h2.74a.34.34,0,0,1,.28.14.37.37,0,0,1,.05.31l-.93,2.77A.8.8,0,0,1,135.35,233.51Zm-.9-3.1.77,2.32a.13.13,0,0,0,.13.09.12.12,0,0,0,.12-.09l.78-2.32Z" transform="translate(-114.32 -202.87)"/><path d="M149.08,233.51a.81.81,0,0,1-.78-.56l-.92-2.77a.31.31,0,0,1,.05-.31.32.32,0,0,1,.27-.14h2.75a.35.35,0,0,1,.28.14.37.37,0,0,1,.05.31l-.93,2.77A.8.8,0,0,1,149.08,233.51Zm-.9-3.1.77,2.32a.13.13,0,0,0,.13.09.12.12,0,0,0,.12-.09l.77-2.32Z" transform="translate(-114.32 -202.87)"/><path d="M142.21,234.42a.8.8,0,0,1-.79-.62l-.91-3.65a.31.31,0,0,1,.06-.29.34.34,0,0,1,.27-.13h2.75a.34.34,0,0,1,.33.42L143,233.8A.82.82,0,0,1,142.21,234.42Zm-.93-4,.81,3.23a.12.12,0,0,0,.12.1.12.12,0,0,0,.13-.1l.81-3.23Z" transform="translate(-114.32 -202.87)"/><path d="M130.89,222.86a1.37,1.37,0,1,1,1.37-1.37A1.37,1.37,0,0,1,130.89,222.86Zm0-2.06a.69.69,0,0,0,0,1.38.69.69,0,0,0,0-1.38Z" transform="translate(-114.32 -202.87)"/><path d="M154.22,220.12a1.38,1.38,0,1,1,1.38-1.37A1.38,1.38,0,0,1,154.22,220.12Zm0-2.06a.69.69,0,1,0,.69.69A.69.69,0,0,0,154.22,218.06Z" transform="translate(-114.32 -202.87)"/><path d="M153.19,244.14a1.72,1.72,0,1,1,1.72-1.71A1.72,1.72,0,0,1,153.19,244.14Zm0-2.74a1,1,0,1,0,1,1A1,1,0,0,0,153.19,241.4Z" transform="translate(-114.32 -202.87)"/></svg>